<svg id="svg" version="1.1" xmlns="http://www.w3.org/2000/svg" xmlns:xlink="http://www.w3.org/1999/xlink" width="400" height="285.6" viewBox="0, 0, 400,285.6"><g id="svgg"><path id="path0" d="M165.713 88.617 C 163.083 89.258,162.200 91.884,163.856 94.140 L 164.583 95.130 163.669 95.894 C 159.076 99.733,164.532 105.375,170.063 102.505 L 171.066 101.985 171.692 102.593 C 172.290 103.172,172.398 103.200,174.005 103.200 L 175.690 103.200 174.245 101.745 C 172.587 100.076,172.657 100.295,173.280 98.716 C 173.544 98.047,173.822 97.028,173.899 96.450 L 174.038 95.400 172.944 95.400 L 171.851 95.400 171.750 96.350 C 171.695 96.873,171.543 97.568,171.412 97.897 L 171.174 98.493 169.678 96.963 L 168.182 95.432 169.182 94.498 C 172.352 91.532,170.014 87.568,165.713 88.617 M38.800 95.900 L 38.800 103.200 41.690 103.200 C 48.742 103.200,51.956 100.225,51.022 94.565 C 50.284 90.101,47.904 88.600,41.563 88.600 L 38.800 88.600 38.800 95.900 M59.729 88.738 C 59.653 88.813,59.597 92.098,59.605 96.038 L 59.619 103.200 64.609 103.200 L 69.600 103.200 69.600 102.000 L 69.600 100.800 66.000 100.800 L 62.400 100.800 62.400 98.800 L 62.400 96.800 65.464 96.800 L 68.529 96.800 68.574 95.800 L 68.620 94.800 65.510 94.800 L 62.400 94.800 62.400 92.900 L 62.400 91.000 65.900 91.000 L 69.400 91.000 69.400 89.800 L 69.400 88.600 64.633 88.600 C 62.012 88.600,59.805 88.662,59.729 88.738 M80.643 88.967 C 78.746 89.643,77.800 90.966,77.800 92.942 C 77.801 95.231,78.534 95.905,82.320 97.096 C 84.949 97.924,85.600 98.357,85.600 99.280 C 85.600 101.132,82.739 101.533,79.833 100.088 L 78.237 99.295 77.718 100.352 C 77.072 101.669,77.032 101.509,78.150 102.069 C 83.210 104.605,88.202 103.210,88.360 99.216 C 88.467 96.516,87.729 95.895,82.763 94.513 C 80.604 93.912,79.782 92.600,80.878 91.504 C 81.808 90.573,83.760 90.605,85.696 91.581 L 86.802 92.139 87.397 91.120 L 87.991 90.100 86.555 89.410 C 84.728 88.531,82.362 88.354,80.643 88.967 M96.933 88.733 C 96.860 88.807,96.800 92.092,96.800 96.033 L 96.800 103.200 98.150 103.200 L 99.500 103.200 99.445 95.900 L 99.390 88.600 98.228 88.600 C 97.589 88.600,97.007 88.660,96.933 88.733 M112.865 88.876 C 106.892 90.826,106.275 99.576,111.900 102.565 C 113.790 103.569,117.307 103.217,118.388 101.915 C 118.813 101.402,119.000 101.550,119.000 102.400 L 119.000 103.200 120.100 103.200 L 121.200 103.200 121.200 99.500 L 121.200 95.800 118.600 95.800 L 116.000 95.800 116.000 96.700 L 116.000 97.600 117.500 97.600 L 119.000 97.600 119.000 98.279 C 119.000 99.001,118.225 99.867,117.018 100.491 C 114.241 101.927,110.963 99.821,110.653 96.400 C 110.224 91.661,115.072 89.014,118.112 92.328 L 118.724 92.995 119.660 92.347 C 120.787 91.568,120.783 91.603,119.863 90.585 C 118.323 88.881,115.193 88.117,112.865 88.876 M129.929 88.738 C 129.853 88.813,129.797 92.098,129.805 96.038 L 129.819 103.200 131.206 103.200 L 132.593 103.200 132.646 98.483 L 132.700 93.766 136.493 98.483 L 140.286 103.200 141.343 103.200 L 142.400 103.200 142.400 95.900 L 142.400 88.600 141.100 88.600 L 139.800 88.600 139.800 93.400 C 139.800 96.040,139.733 98.196,139.650 98.191 C 139.567 98.186,137.799 96.026,135.720 93.391 L 131.939 88.600 131.003 88.600 C 130.488 88.600,130.005 88.662,129.929 88.738 M194.400 95.900 L 194.400 103.200 195.796 103.200 L 197.193 103.200 197.246 98.350 L 197.300 93.500 199.123 97.000 L 200.946 100.500 201.751 100.560 L 202.555 100.621 204.295 97.260 C 205.252 95.412,206.117 93.814,206.218 93.710 C 206.328 93.595,206.400 95.437,206.400 98.360 L 206.400 103.200 207.800 103.200 L 209.200 103.200 209.200 95.892 L 209.200 88.583 207.683 88.642 L 206.166 88.700 204.063 92.700 C 202.906 94.900,201.902 96.763,201.830 96.839 C 201.759 96.916,200.726 95.093,199.536 92.789 L 197.372 88.600 195.886 88.600 L 194.400 88.600 194.400 95.900 M222.454 88.940 C 222.377 89.138,221.126 92.405,219.673 96.200 L 217.032 103.100 218.340 103.160 C 219.905 103.231,219.686 103.424,220.484 101.269 L 221.139 99.500 223.741 99.444 L 226.343 99.389 227.042 101.244 L 227.741 103.100 229.144 103.158 L 230.548 103.216 227.790 95.958 L 225.033 88.700 223.814 88.640 C 222.792 88.590,222.572 88.639,222.454 88.940 M238.400 95.884 L 238.400 103.200 239.700 103.200 L 241.000 103.200 241.000 100.700 L 241.000 98.200 242.485 98.200 L 243.970 98.200 245.504 100.700 L 247.038 103.200 248.542 103.200 L 250.046 103.200 249.760 102.750 C 249.603 102.503,248.854 101.274,248.094 100.020 L 246.714 97.740 247.207 97.422 C 250.250 95.464,249.983 90.884,246.725 89.141 C 245.974 88.740,245.562 88.694,242.150 88.634 L 238.400 88.569 238.400 95.884 M258.200 95.900 L 258.200 103.200 259.500 103.200 L 260.800 103.200 260.809 101.050 L 260.817 98.900 261.810 97.800 C 262.432 97.110,262.858 96.782,262.951 96.920 C 263.033 97.041,264.080 98.503,265.278 100.170 L 267.457 103.200 268.953 103.200 C 270.121 103.200,270.406 103.145,270.253 102.950 C 268.460 100.662,264.594 95.112,264.670 94.935 C 264.726 94.806,265.597 93.755,266.606 92.600 C 267.614 91.445,268.799 90.073,269.238 89.550 L 270.037 88.600 268.569 88.610 L 267.100 88.619 264.000 92.156 L 260.900 95.693 260.845 92.146 L 260.791 88.600 259.495 88.600 L 258.200 88.600 258.200 95.900 M278.000 95.900 L 278.000 103.200 283.050 103.200 L 288.100 103.201 288.032 102.005 L 287.965 100.809 284.332 100.754 L 280.700 100.700 280.700 98.800 L 280.700 96.900 283.800 96.845 L 286.900 96.791 286.874 95.776 L 286.849 94.761 283.830 94.789 C 280.329 94.822,280.533 94.969,280.640 92.496 L 280.700 91.100 284.250 91.045 L 287.800 90.991 287.800 89.795 L 287.800 88.600 282.900 88.600 L 278.000 88.600 278.000 95.900 M295.304 88.794 C 295.236 88.904,295.201 89.446,295.226 89.997 L 295.271 91.000 297.636 91.000 L 300.000 91.000 300.000 97.100 L 300.000 103.200 301.300 103.200 L 302.600 103.200 302.600 97.100 L 302.600 91.000 304.975 91.000 L 307.349 91.000 307.325 89.850 L 307.300 88.700 301.364 88.647 C 297.562 88.613,295.383 88.666,295.304 88.794 M315.400 95.900 L 315.400 103.200 316.700 103.200 L 318.000 103.200 318.000 95.900 L 318.000 88.600 316.700 88.600 L 315.400 88.600 315.400 95.900 M327.400 95.900 L 327.400 103.200 328.700 103.200 L 330.000 103.200 330.000 98.500 C 330.000 95.915,330.068 93.808,330.150 93.817 C 330.233 93.827,331.965 95.939,334.000 98.511 L 337.700 103.186 338.750 103.193 L 339.800 103.200 339.800 95.889 L 339.800 88.579 338.500 88.621 L 337.200 88.663 337.200 93.432 C 337.200 96.054,337.132 98.194,337.050 98.186 C 336.968 98.178,335.208 96.018,333.139 93.386 L 329.378 88.600 328.389 88.600 L 327.400 88.600 327.400 95.900 M353.067 88.970 C 348.174 90.661,346.752 97.322,350.463 101.167 C 352.600 103.380,355.888 103.856,358.218 102.288 C 359.474 101.443,359.400 101.436,359.400 102.400 L 359.400 103.200 360.484 103.200 L 361.568 103.200 361.591 99.500 L 361.614 95.800 359.007 95.800 L 356.400 95.800 356.400 96.700 L 356.400 97.600 357.912 97.600 L 359.424 97.600 359.362 98.343 C 359.245 99.742,356.724 101.184,354.879 100.907 C 353.312 100.672,351.632 99.166,351.199 97.608 C 349.767 92.455,355.094 88.602,358.507 92.323 L 359.114 92.984 360.051 92.342 C 361.215 91.544,361.217 91.590,359.950 90.330 C 358.269 88.659,355.532 88.118,353.067 88.970 M168.066 90.851 C 168.598 91.481,168.366 92.357,167.453 93.163 L 166.702 93.827 166.051 93.116 C 165.586 92.609,165.400 92.213,165.400 91.734 C 165.400 90.335,167.143 89.757,168.066 90.851 M46.566 91.676 C 48.773 93.207,49.185 97.236,47.348 99.329 C 46.324 100.495,45.487 100.800,43.308 100.800 L 41.400 100.800 41.400 95.882 L 41.400 90.965 43.568 91.032 C 45.575 91.095,45.797 91.143,46.566 91.676 M245.979 91.707 C 246.744 92.578,246.834 93.913,246.199 94.955 C 245.659 95.840,245.058 96.024,242.918 95.957 L 241.100 95.900 241.044 93.450 L 240.988 91.000 243.173 91.000 L 245.359 91.000 245.979 91.707 M224.851 94.551 C 225.374 96.063,225.801 97.413,225.801 97.550 C 225.800 97.845,221.895 97.916,221.715 97.625 C 221.600 97.438,223.613 91.799,223.794 91.801 C 223.852 91.802,224.328 93.040,224.851 94.551 M167.826 98.512 C 169.876 100.609,169.843 100.515,168.688 101.026 C 165.706 102.345,163.101 99.433,165.399 97.350 C 166.162 96.659,165.885 96.526,167.826 98.512 M144.153 118.103 C 141.547 119.060,138.903 122.019,133.798 129.693 C 131.850 132.620,131.400 133.417,131.400 133.940 C 131.399 134.138,130.447 136.145,129.283 138.400 C 124.215 148.219,122.212 153.942,119.928 165.141 C 119.408 167.693,119.096 168.774,118.722 169.325 C 118.445 169.733,118.268 170.147,118.328 170.246 C 118.528 170.568,115.014 173.666,113.184 174.781 C 111.101 176.051,110.316 174.382,111.453 171.100 C 111.720 170.330,111.895 169.575,111.843 169.422 C 111.786 169.255,111.837 169.199,111.972 169.283 C 112.106 169.366,112.155 169.315,112.093 169.155 C 111.946 168.770,113.639 165.412,114.352 164.674 C 115.575 163.409,115.417 162.491,113.854 161.779 C 111.903 160.890,110.320 161.108,109.408 162.389 C 108.654 163.448,107.206 168.339,107.202 169.838 C 107.201 170.244,107.110 170.632,107.000 170.700 C 106.727 170.869,106.746 173.122,107.025 173.663 C 109.948 179.337,113.627 179.897,117.112 175.198 C 117.846 174.209,118.468 173.400,118.495 173.400 C 118.522 173.400,118.553 174.253,118.564 175.295 C 118.609 179.468,120.994 180.533,122.714 177.147 C 123.036 176.514,123.870 175.209,124.566 174.247 C 126.313 171.838,128.600 168.399,128.600 168.183 C 128.600 168.085,128.941 167.790,129.357 167.527 C 129.799 167.248,131.106 165.768,132.496 163.975 C 134.701 161.127,137.870 157.600,138.222 157.600 C 138.306 157.600,138.033 158.433,137.617 159.450 C 137.201 160.468,136.702 161.733,136.509 162.262 C 136.316 162.791,135.995 163.376,135.796 163.562 C 135.017 164.290,132.811 169.274,131.973 172.200 C 130.486 177.391,130.707 179.319,133.071 181.766 C 136.536 185.354,138.903 184.182,143.719 176.497 C 144.479 175.285,145.252 174.081,145.437 173.821 L 145.773 173.349 146.532 173.974 C 147.320 174.624,148.111 174.769,148.813 174.393 C 149.098 174.240,149.200 174.251,149.200 174.433 C 149.200 174.568,149.679 173.874,150.264 172.890 C 151.944 170.065,153.899 167.137,154.397 166.700 C 154.648 166.480,155.532 165.400,156.362 164.300 C 158.324 161.698,158.916 160.993,158.709 161.500 C 158.619 161.720,158.416 162.260,158.257 162.700 C 158.098 163.140,157.782 163.673,157.556 163.884 C 156.019 165.316,154.505 172.447,155.195 175.000 C 155.606 176.522,158.522 178.800,160.058 178.800 C 161.370 178.800,163.622 176.839,166.087 173.550 C 166.726 172.697,167.269 172.000,167.294 172.000 C 167.319 172.000,167.174 172.967,166.972 174.150 C 166.600 176.318,166.519 178.678,166.783 179.600 C 166.868 179.897,166.985 178.895,167.071 177.127 C 167.209 174.292,167.906 171.214,168.559 170.561 C 168.883 170.237,168.413 173.830,167.823 176.190 C 166.871 179.994,166.990 180.799,168.743 182.431 C 172.633 186.054,176.220 184.943,180.791 178.700 C 181.597 177.600,182.765 176.115,183.388 175.400 C 184.011 174.685,185.230 173.173,186.097 172.041 C 187.413 170.323,187.706 170.038,187.865 170.323 C 187.994 170.554,187.973 170.797,187.801 171.072 C 187.621 171.361,187.567 172.182,187.614 173.890 C 187.652 175.215,187.663 176.863,187.639 177.550 C 187.400 184.464,187.509 185.049,189.197 185.942 C 191.401 187.107,192.472 186.377,193.111 183.272 C 193.684 180.489,195.269 177.791,198.489 174.117 C 199.446 173.026,200.555 171.734,200.955 171.246 L 201.683 170.358 201.910 171.366 C 202.714 174.938,207.728 175.189,211.438 171.843 L 212.262 171.100 212.105 171.900 C 210.851 178.275,213.054 182.329,216.883 180.695 C 217.174 180.571,217.226 180.595,217.102 180.797 C 216.983 180.989,217.016 181.016,217.219 180.895 C 218.896 179.900,222.006 176.400,223.702 173.600 C 226.650 168.734,227.361 168.151,226.411 171.378 C 224.014 179.529,226.798 186.030,231.700 183.726 C 233.934 182.676,237.757 177.632,240.815 171.700 C 241.552 170.270,242.390 168.657,242.678 168.116 C 242.979 167.549,243.200 166.808,243.200 166.366 C 243.200 164.862,242.370 165.554,240.397 168.700 C 232.306 181.601,229.403 183.333,231.270 174.147 C 231.531 172.862,231.663 171.861,231.564 171.922 C 231.116 172.199,232.626 167.946,233.825 165.554 C 236.149 160.920,231.758 158.614,228.301 162.653 L 227.641 163.424 227.219 162.162 C 225.777 157.853,223.101 156.469,220.238 158.553 C 219.674 158.964,218.838 159.525,218.381 159.800 C 217.427 160.373,215.942 162.361,214.795 164.600 C 213.821 166.499,211.053 169.405,209.189 170.482 C 208.480 170.892,207.586 171.422,207.202 171.660 C 205.852 172.497,203.599 172.162,203.601 171.126 C 203.605 169.170,205.075 167.048,207.600 165.353 C 210.263 163.565,210.761 162.761,209.800 161.800 C 208.496 160.496,206.224 161.533,203.554 164.651 C 202.778 165.558,201.163 167.309,199.965 168.541 C 198.767 169.774,197.655 171.098,197.494 171.484 C 197.332 171.870,196.801 172.636,196.313 173.186 C 195.824 173.736,195.037 174.751,194.562 175.443 L 193.700 176.700 193.650 176.000 C 193.542 174.469,192.966 168.835,192.813 167.800 C 192.673 166.859,192.643 167.076,192.601 169.300 C 192.525 173.391,192.278 173.506,192.175 169.500 C 192.104 166.741,192.005 165.725,191.752 165.150 C 191.569 164.738,191.498 164.400,191.593 164.400 C 191.689 164.400,191.886 164.670,192.032 165.000 C 192.337 165.690,192.600 165.782,192.600 165.200 C 192.600 164.980,192.520 164.800,192.422 164.800 C 192.324 164.800,192.188 164.578,192.119 164.306 C 191.570 162.118,186.690 164.445,187.112 166.694 C 187.265 167.510,186.612 168.518,183.640 172.052 C 182.747 173.114,181.840 174.324,181.623 174.742 C 180.860 176.211,176.536 180.119,174.568 181.116 C 171.811 182.513,171.149 180.865,172.284 175.424 C 172.568 174.062,172.800 172.654,172.800 172.296 C 172.800 171.369,173.290 170.930,175.000 170.326 C 178.438 169.111,182.873 165.016,184.019 162.000 C 186.185 156.295,178.756 153.480,173.988 158.199 C 172.012 160.154,169.893 163.532,168.785 166.493 C 168.435 167.429,168.074 167.848,166.140 169.564 C 158.407 176.425,157.493 176.689,159.116 171.600 C 159.380 170.775,159.596 169.931,159.597 169.724 C 159.599 169.517,159.791 169.022,160.024 168.624 L 160.449 167.900 159.936 168.500 C 159.654 168.830,159.040 169.944,158.571 170.976 C 158.102 172.009,157.684 172.751,157.642 172.627 C 157.559 172.376,159.527 168.134,160.552 166.357 C 160.915 165.728,161.846 164.468,162.621 163.557 C 164.461 161.394,164.878 160.590,164.878 159.200 C 164.878 156.399,162.885 155.009,160.702 156.288 C 159.497 156.994,154.753 162.937,151.910 167.300 C 151.050 168.620,150.184 169.908,149.985 170.162 L 149.623 170.625 149.627 170.162 C 149.649 167.714,150.588 163.502,151.402 162.200 C 151.711 161.705,152.070 160.940,152.199 160.500 C 152.338 160.026,152.877 159.220,153.519 158.524 C 155.118 156.793,155.126 155.893,153.548 155.070 C 151.804 154.160,150.185 154.788,149.599 156.601 C 149.404 157.206,149.013 158.251,148.731 158.924 C 148.201 160.189,146.206 165.763,145.840 167.000 C 145.727 167.385,145.574 168.283,145.502 168.996 C 145.347 170.515,145.127 170.811,140.947 175.121 C 136.844 179.353,135.600 179.076,137.079 174.260 C 137.731 172.138,137.840 171.600,137.620 171.600 C 137.518 171.600,137.382 171.713,137.319 171.850 C 137.255 171.988,137.257 171.875,137.322 171.600 C 137.559 170.595,138.888 167.414,140.540 163.900 C 141.470 161.920,142.410 159.805,142.629 159.200 C 143.830 155.884,141.262 153.140,138.348 154.627 C 136.601 155.518,129.337 163.921,125.510 169.479 C 123.643 172.191,123.600 172.201,124.294 169.765 C 127.091 159.948,127.349 159.420,131.377 155.300 C 133.205 153.430,135.003 151.450,135.373 150.900 C 135.743 150.350,136.391 149.630,136.812 149.300 C 140.688 146.268,147.000 134.490,148.718 127.084 C 149.253 124.775,149.563 120.060,149.139 120.669 C 149.041 120.810,149.008 120.744,149.054 120.500 C 149.413 118.589,146.589 117.208,144.153 118.103 M146.634 121.531 C 147.827 122.611,145.686 129.689,142.257 136.000 C 141.748 136.935,140.940 138.465,140.460 139.400 C 138.797 142.639,134.960 148.015,131.442 152.034 C 129.993 153.690,129.504 154.076,129.786 153.340 C 132.045 147.466,132.639 145.845,132.694 145.404 C 132.821 144.403,140.424 129.575,143.209 124.897 C 145.156 121.628,145.916 120.881,146.634 121.531 M340.829 124.032 C 334.820 125.098,323.877 146.262,319.492 165.300 C 318.883 167.943,318.708 168.235,315.227 172.400 C 314.445 173.335,313.680 174.357,313.527 174.671 C 313.160 175.423,309.822 178.793,308.300 179.947 C 304.226 183.038,302.779 181.704,304.020 176.000 C 304.247 174.955,304.506 173.484,304.595 172.731 C 304.790 171.090,304.698 171.189,306.748 170.404 C 313.588 167.784,318.423 160.144,315.092 157.220 C 309.910 152.670,302.068 159.252,299.627 170.200 C 298.536 175.090,298.234 178.075,298.683 179.500 C 298.930 180.282,298.934 180.267,298.870 178.848 C 298.762 176.487,299.104 174.052,299.834 171.985 L 300.500 170.100 300.561 171.059 C 300.623 172.024,300.276 174.042,299.578 176.782 C 298.634 180.486,299.360 182.154,302.644 183.829 C 305.953 185.515,308.522 184.175,312.807 178.524 C 313.901 177.081,315.362 175.225,316.053 174.400 C 316.743 173.575,317.462 172.680,317.650 172.412 C 318.172 171.665,318.254 172.006,318.018 173.934 C 317.636 177.050,317.812 180.063,318.358 179.726 C 318.445 179.672,318.667 180.049,318.851 180.564 C 320.134 184.143,322.919 184.097,324.196 180.475 C 325.312 177.310,325.518 176.868,326.203 176.175 C 326.586 175.787,327.253 174.801,327.684 173.984 C 329.050 171.397,333.890 165.385,334.369 165.681 C 334.461 165.738,335.002 165.635,335.571 165.453 C 337.628 164.795,337.941 166.653,336.310 169.843 C 335.810 170.823,335.400 171.781,335.400 171.972 C 335.400 172.163,335.288 172.446,335.150 172.600 C 334.942 172.833,334.952 172.842,335.206 172.652 C 335.374 172.527,335.996 171.427,336.587 170.209 C 337.809 167.690,338.101 167.444,337.241 169.660 C 336.114 172.561,333.578 176.313,331.537 178.099 C 330.183 179.283,329.872 179.254,331.027 178.050 C 331.825 177.219,334.474 173.867,334.787 173.292 C 334.942 173.007,334.188 173.831,332.334 175.971 C 331.472 176.966,330.323 178.064,329.780 178.413 C 327.886 179.628,327.579 180.507,328.630 181.703 C 330.938 184.333,334.289 182.797,338.452 177.200 C 340.509 174.435,342.336 172.376,343.276 171.762 C 343.729 171.467,344.505 170.824,345.000 170.334 C 345.495 169.844,346.375 169.193,346.955 168.887 C 347.629 168.532,348.051 168.166,348.125 167.873 C 348.188 167.621,348.411 167.360,348.620 167.294 C 349.179 167.116,349.461 166.488,349.200 166.000 C 348.883 165.408,348.547 165.502,347.366 166.514 C 346.036 167.654,341.607 170.675,341.581 170.459 C 341.571 170.372,341.578 169.918,341.596 169.451 C 341.645 168.227,340.793 164.449,340.306 163.726 C 338.206 160.610,334.630 162.203,328.914 168.800 C 327.219 170.756,326.752 171.377,327.169 171.119 C 327.295 171.041,326.906 171.664,326.304 172.503 C 325.701 173.343,324.967 174.473,324.673 175.015 C 324.077 176.109,323.760 176.289,323.906 175.450 C 323.958 175.148,324.181 173.820,324.399 172.500 C 326.033 162.641,326.786 160.192,328.462 159.291 C 329.085 158.955,329.881 158.389,330.230 158.032 C 331.067 157.175,332.535 156.018,332.300 156.400 C 331.555 157.609,336.401 152.761,338.297 150.400 C 340.619 147.508,345.358 138.775,345.616 136.911 C 345.708 136.245,345.887 135.025,346.012 134.200 C 346.997 127.735,344.754 123.335,340.829 124.032 M141.386 126.238 C 141.034 127.042,139.007 131.180,136.881 135.433 C 134.755 139.686,132.705 143.916,132.326 144.833 C 131.946 145.750,131.280 147.310,130.846 148.300 C 130.412 149.290,129.629 151.315,129.106 152.800 C 128.052 155.793,127.885 156.125,128.101 154.800 C 128.899 149.894,133.337 139.889,140.674 126.455 C 142.006 124.016,142.411 123.893,141.386 126.238 M337.553 127.684 C 335.304 129.911,330.816 137.033,327.982 142.870 C 327.226 144.427,326.606 145.643,326.604 145.574 C 326.509 142.596,336.764 126.441,338.775 126.401 C 338.816 126.401,338.266 126.978,337.553 127.684 M343.187 126.987 C 344.656 128.456,344.476 133.453,342.762 138.768 L 341.772 141.837 339.565 144.756 C 334.721 151.161,331.836 154.229,328.441 156.583 L 327.782 157.040 327.920 156.470 C 327.995 156.156,328.217 155.580,328.413 155.189 C 328.609 154.797,329.499 152.428,330.392 149.922 C 334.201 139.235,338.825 128.865,339.700 129.050 C 339.970 129.107,342.032 126.899,341.865 126.732 C 341.793 126.659,341.973 126.600,342.267 126.600 C 342.560 126.600,342.974 126.774,343.187 126.987 M67.300 134.933 C 63.687 135.899,58.600 139.911,58.600 141.794 C 58.600 141.968,58.185 142.777,57.678 143.591 C 55.744 146.699,55.484 149.927,57.011 151.868 C 57.851 152.937,59.000 152.434,59.000 150.998 C 59.000 146.037,67.362 135.747,69.441 138.150 C 70.314 139.159,69.466 143.279,67.388 148.129 C 67.169 148.639,67.027 149.094,67.073 149.140 C 67.119 149.185,67.407 148.565,67.714 147.761 C 68.021 146.958,68.346 146.215,68.436 146.110 C 69.213 145.209,67.205 150.882,65.148 155.400 C 62.357 161.531,61.761 162.437,63.922 157.265 C 65.580 153.298,67.033 149.566,66.952 149.485 C 66.871 149.404,62.901 158.739,61.601 162.065 C 61.050 163.476,59.821 166.446,58.871 168.665 C 54.120 179.757,53.720 184.324,57.459 184.746 C 58.820 184.899,59.425 184.235,60.321 181.600 C 62.525 175.124,65.885 169.122,73.758 157.600 C 79.866 148.660,86.755 141.686,87.516 143.671 C 87.728 144.222,85.173 150.082,83.406 153.100 C 74.751 167.882,72.257 176.775,75.875 179.951 C 77.284 181.188,77.997 180.915,78.787 178.836 C 79.024 178.211,79.699 176.935,80.287 176.000 C 80.874 175.065,82.366 172.590,83.602 170.500 C 84.838 168.410,86.179 166.340,86.580 165.900 C 86.982 165.460,88.338 163.660,89.593 161.900 C 94.791 154.613,98.888 150.520,100.329 151.177 C 100.855 151.417,100.911 151.825,100.587 153.077 C 100.019 155.270,99.742 156.058,99.429 156.371 C 98.944 156.856,95.555 163.932,94.715 166.215 C 94.327 167.268,93.459 169.383,92.786 170.915 C 91.322 174.248,90.800 175.642,90.800 176.222 C 90.800 176.459,90.713 176.979,90.606 177.377 C 88.484 185.268,89.016 190.214,92.400 194.053 C 95.031 197.039,99.062 196.867,102.462 193.625 C 105.093 191.116,104.780 190.179,101.719 191.405 C 99.956 192.111,97.905 192.418,96.497 192.187 C 95.949 192.097,95.394 192.018,95.265 192.012 C 94.740 191.985,93.798 190.936,93.584 190.140 C 93.000 187.971,94.658 182.538,99.183 171.800 C 100.179 169.435,100.996 167.338,100.997 167.139 C 100.999 166.941,101.705 165.405,102.568 163.726 C 106.312 156.437,106.731 151.676,103.869 148.961 C 101.069 146.305,97.946 147.820,91.492 154.963 C 90.315 156.265,87.886 159.504,87.056 160.880 C 86.650 161.551,85.615 163.169,84.754 164.475 C 83.893 165.782,82.641 167.834,81.971 169.035 C 81.302 170.237,80.710 171.176,80.656 171.122 C 80.158 170.625,86.882 155.181,89.115 151.689 C 91.240 148.369,91.724 146.015,90.794 143.529 C 89.234 139.362,86.618 139.136,82.923 142.849 C 78.751 147.042,74.510 152.320,70.614 158.168 C 69.489 159.855,68.537 161.203,68.497 161.163 C 68.373 161.040,69.350 157.765,70.084 155.841 C 71.065 153.272,73.149 146.804,73.610 144.900 C 75.072 138.860,71.821 133.724,67.300 134.933 M310.232 135.840 C 309.829 136.298,308.764 137.476,307.864 138.457 C 303.720 142.976,295.881 155.208,291.365 164.200 C 290.288 166.345,288.912 169.000,288.307 170.100 C 287.401 171.751,285.531 175.742,284.373 178.500 C 283.973 179.452,283.780 176.127,284.135 174.400 C 284.651 171.892,284.989 169.679,285.204 167.400 C 285.324 166.135,285.552 164.393,285.711 163.528 C 286.006 161.921,286.071 160.900,285.821 161.800 C 285.706 162.212,285.659 162.240,285.551 161.960 C 285.475 161.764,285.627 161.233,285.911 160.698 C 286.227 160.104,286.432 159.335,286.486 158.538 C 286.653 156.095,288.023 150.701,288.619 150.142 C 288.828 149.945,289.015 149.630,289.034 149.442 C 289.053 149.254,289.081 148.965,289.095 148.800 C 289.110 148.635,289.230 148.303,289.361 148.063 C 289.951 146.984,289.408 145.643,287.957 144.591 C 287.113 143.980,286.013 143.877,285.837 144.392 C 285.803 144.493,284.584 146.044,283.129 147.838 C 279.588 152.204,278.150 154.120,277.274 155.635 C 276.541 156.904,273.965 160.507,272.575 162.208 C 272.167 162.708,271.123 164.238,270.256 165.608 C 267.723 169.614,265.128 173.198,265.267 172.500 C 265.333 172.170,265.694 170.550,266.068 168.900 C 266.998 164.802,269.386 151.256,270.115 145.950 C 270.187 145.428,270.325 145.000,270.421 145.000 C 270.912 145.000,270.491 139.127,269.908 137.842 C 268.265 134.217,264.446 134.728,263.283 138.727 C 262.637 140.952,263.132 142.340,264.401 141.861 L 265.012 141.630 264.910 143.465 C 264.854 144.474,264.806 145.553,264.804 145.862 C 264.802 146.171,264.714 146.371,264.609 146.306 C 264.283 146.104,263.823 148.495,263.495 152.100 C 263.425 152.870,263.195 154.287,262.984 155.248 C 262.773 156.209,262.600 157.306,262.600 157.685 C 262.600 158.567,262.096 160.785,261.573 162.200 C 261.148 163.352,259.989 167.989,260.015 168.439 C 260.098 169.940,263.649 155.458,265.124 147.600 C 265.468 145.768,265.565 145.447,265.488 146.400 C 265.060 151.692,262.504 162.514,259.394 172.200 C 256.892 179.993,256.363 181.825,256.350 182.747 C 256.302 185.883,261.960 185.919,262.803 182.787 C 263.240 181.166,267.413 174.072,271.788 167.512 C 273.187 165.415,275.040 162.579,275.906 161.208 C 276.773 159.838,278.121 157.948,278.902 157.008 C 279.684 156.069,280.748 154.741,281.266 154.059 C 282.574 152.338,282.620 152.360,282.083 154.451 C 281.822 155.468,281.606 156.553,281.604 156.862 C 281.602 157.171,281.515 157.371,281.410 157.306 C 281.081 157.103,280.806 157.914,280.482 160.041 C 280.310 161.173,279.995 163.000,279.782 164.100 C 279.570 165.200,279.397 166.608,279.398 167.229 C 279.399 167.850,279.224 168.930,279.010 169.629 C 278.074 172.677,277.706 182.227,278.461 183.900 C 279.852 186.987,283.503 187.612,284.292 184.898 C 284.630 183.735,287.907 176.682,289.227 174.275 C 289.657 173.491,290.620 171.511,291.367 169.875 C 292.608 167.155,295.867 161.247,297.201 159.300 C 297.502 158.860,298.246 157.507,298.854 156.293 C 299.462 155.080,300.341 153.604,300.808 153.014 C 301.274 152.424,302.375 150.897,303.255 149.621 C 304.134 148.344,305.534 146.494,306.366 145.510 C 307.197 144.525,308.167 143.240,308.520 142.653 C 309.406 141.182,309.461 141.126,311.254 139.862 C 313.475 138.296,313.760 137.538,312.677 136.072 C 311.834 134.931,311.093 134.861,310.232 135.840 M115.237 147.011 C 114.983 147.113,114.823 147.275,114.882 147.372 C 114.942 147.468,114.813 147.708,114.595 147.904 C 114.127 148.328,114.079 148.911,114.500 149.072 C 115.313 149.384,113.764 154.008,112.418 155.287 C 111.707 155.964,111.587 157.007,112.105 158.010 C 112.560 158.890,113.224 158.794,114.362 157.685 C 114.905 157.156,115.107 156.866,114.842 156.996 C 114.457 157.186,114.505 157.060,115.142 156.198 C 115.559 155.634,116.000 154.996,116.122 154.779 C 116.244 154.562,116.535 154.182,116.768 153.934 C 117.001 153.686,117.292 153.197,117.414 152.847 C 117.537 152.494,117.930 152.029,118.297 151.802 C 121.271 149.964,118.539 145.687,115.237 147.011 M116.269 155.465 C 115.468 156.198,115.379 156.833,116.152 156.291 C 116.576 155.994,117.337 154.800,117.102 154.800 C 117.043 154.800,116.668 155.099,116.269 155.465 M181.000 158.300 C 181.634 159.485,181.097 162.101,179.916 163.576 C 178.277 165.624,174.976 168.400,174.180 168.400 C 173.725 168.400,176.812 161.713,178.117 159.873 C 179.652 157.709,180.451 157.273,181.000 158.300 M312.915 158.430 C 314.119 160.758,311.794 164.712,307.569 167.520 C 305.821 168.683,305.772 168.616,306.701 166.353 C 309.523 159.482,311.895 156.457,312.915 158.430 M224.650 160.550 C 225.008 160.953,225.679 163.072,225.391 162.894 C 225.286 162.830,225.200 162.632,225.200 162.455 C 225.200 162.278,225.145 162.189,225.077 162.256 C 225.010 162.324,225.145 163.005,225.377 163.770 C 226.024 165.900,226.013 165.939,223.850 169.072 C 218.316 177.088,216.641 178.436,216.882 174.683 C 217.307 168.060,222.662 158.317,224.650 160.550 M95.800 166.328 C 95.800 166.904,94.715 169.838,93.555 172.400 C 92.783 174.105,92.037 175.815,91.896 176.200 C 91.502 177.276,90.809 178.726,90.804 178.485 C 90.794 177.996,92.113 174.354,93.028 172.347 C 93.567 171.162,94.269 169.387,94.589 168.403 C 94.908 167.418,95.226 166.519,95.296 166.406 C 95.436 166.180,95.800 166.124,95.800 166.328 M227.217 169.021 C 227.041 169.461,227.024 169.466,227.013 169.083 C 227.006 168.854,227.060 168.607,227.133 168.533 C 227.372 168.294,227.413 168.531,227.217 169.021 " stroke="none" fill="#fcc35b" fill-rule="evenodd"></path><path id="path1" d="M0.000 142.800 L 0.000 285.600 200.000 285.600 L 400.000 285.600 400.000 142.800 L 400.000 0.000 200.000 0.000 L 0.000 0.000 0.000 142.800 M169.243 88.848 C 171.370 90.044,171.396 92.610,169.303 94.635 L 168.543 95.370 169.154 96.135 C 169.490 96.556,170.078 97.201,170.461 97.568 L 171.157 98.237 171.368 97.568 C 171.484 97.201,171.639 96.468,171.713 95.941 L 171.848 94.981 172.974 95.041 L 174.100 95.100 174.033 96.200 C 173.996 96.805,173.790 97.795,173.574 98.400 C 173.358 99.005,173.132 99.649,173.073 99.830 C 172.999 100.052,173.430 100.651,174.382 101.654 C 176.133 103.497,176.151 103.400,174.060 103.400 C 172.392 103.400,172.293 103.375,171.692 102.793 L 171.066 102.185 170.083 102.692 C 164.578 105.530,159.119 100.224,163.271 96.070 L 164.300 95.041 163.657 94.108 C 161.174 90.510,165.294 86.629,169.243 88.848 M47.059 88.980 C 51.167 90.595,52.738 96.453,50.098 100.310 C 48.448 102.720,46.293 103.466,41.300 103.357 L 38.700 103.300 38.648 95.831 L 38.595 88.362 42.248 88.443 C 45.459 88.514,46.040 88.579,47.059 88.980 M69.611 88.550 C 69.828 91.410,70.075 91.243,65.745 91.160 L 62.599 91.100 62.600 92.745 L 62.600 94.390 65.650 94.445 L 68.700 94.500 68.700 95.700 L 68.700 96.900 65.650 96.955 L 62.600 97.010 62.600 98.805 L 62.600 100.600 66.209 100.600 L 69.818 100.600 69.759 101.950 L 69.700 103.300 64.600 103.300 L 59.500 103.300 59.447 96.101 C 59.419 92.141,59.438 88.789,59.491 88.651 C 59.599 88.370,69.590 88.271,69.611 88.550 M85.656 88.817 C 86.340 89.046,87.196 89.416,87.557 89.638 L 88.215 90.042 87.583 91.171 C 87.235 91.792,86.936 92.318,86.918 92.341 C 86.900 92.363,86.369 92.121,85.737 91.802 C 83.200 90.522,80.600 90.893,80.600 92.534 C 80.600 93.369,81.134 93.768,82.985 94.317 C 87.606 95.687,88.600 96.512,88.600 98.977 C 88.600 103.112,83.541 104.816,78.433 102.400 C 76.901 101.676,76.824 101.485,77.525 100.160 C 77.833 99.577,78.091 99.083,78.098 99.061 C 78.105 99.040,78.713 99.325,79.449 99.696 C 82.645 101.305,85.546 101.051,85.364 99.178 C 85.283 98.345,84.708 97.994,82.180 97.232 C 78.176 96.024,77.034 94.754,77.595 92.132 C 78.265 89.003,81.834 87.535,85.656 88.817 M99.600 95.909 L 99.600 103.418 98.150 103.359 L 96.700 103.300 96.648 95.850 L 96.595 88.400 98.098 88.400 L 99.600 88.400 99.600 95.909 M117.397 88.699 C 118.734 89.171,120.800 90.930,120.800 91.596 C 120.800 91.756,118.855 93.200,118.639 93.200 C 118.545 93.200,118.343 92.968,118.191 92.683 C 117.709 91.783,116.279 91.102,114.867 91.101 C 109.739 91.098,109.349 99.759,114.436 100.680 C 116.108 100.982,118.800 99.575,118.800 98.398 L 118.800 97.800 117.300 97.800 L 115.800 97.800 115.800 96.700 L 115.800 95.600 118.604 95.600 L 121.409 95.600 121.354 99.450 L 121.300 103.300 120.100 103.300 L 118.900 103.300 118.800 102.517 C 118.709 101.804,118.674 101.765,118.413 102.082 C 116.768 104.078,112.303 103.703,109.973 101.373 C 104.474 95.874,110.170 86.149,117.397 88.699 M135.737 93.144 L 139.500 97.888 139.554 93.144 L 139.607 88.400 141.106 88.400 L 142.605 88.400 142.552 95.850 L 142.500 103.300 141.380 103.359 L 140.259 103.418 136.480 98.709 L 132.700 93.999 132.646 98.708 L 132.593 103.417 131.146 103.359 L 129.700 103.300 129.647 96.101 C 129.586 87.736,129.480 88.400,130.881 88.400 L 131.974 88.400 135.737 93.144 M199.568 92.550 C 200.731 94.778,201.731 96.598,201.791 96.595 C 201.851 96.593,202.845 94.770,204.000 92.545 L 206.100 88.500 207.650 88.442 L 209.200 88.383 209.200 95.900 L 209.200 103.418 207.750 103.359 L 206.300 103.300 206.200 98.700 L 206.100 94.100 204.375 97.400 L 202.649 100.700 201.775 100.754 L 200.900 100.807 199.100 97.308 L 197.300 93.809 197.246 98.613 L 197.193 103.417 195.746 103.359 L 194.300 103.300 194.247 96.101 C 194.185 87.561,194.008 88.368,195.924 88.442 L 197.454 88.500 199.568 92.550 M225.168 88.750 C 225.508 89.406,230.600 102.923,230.600 103.171 C 230.600 103.349,230.198 103.401,229.150 103.359 L 227.701 103.300 226.989 101.500 L 226.277 99.700 223.762 99.644 L 221.247 99.588 220.568 101.444 L 219.889 103.300 218.444 103.300 C 217.650 103.300,216.978 103.247,216.950 103.183 C 216.923 103.118,218.159 99.766,219.697 95.733 L 222.494 88.400 223.740 88.400 C 224.724 88.400,225.024 88.474,225.168 88.750 M246.077 88.646 C 249.670 89.719,250.688 95.508,247.604 97.330 C 246.840 97.781,246.746 97.479,248.591 100.500 C 250.389 103.446,250.390 103.440,248.389 103.359 L 246.916 103.300 245.425 100.850 L 243.934 98.400 242.573 98.400 L 241.212 98.400 241.156 100.850 L 241.100 103.300 239.700 103.300 L 238.300 103.300 238.248 95.850 L 238.195 88.400 241.724 88.400 C 243.936 88.400,245.561 88.492,246.077 88.646 M261.045 91.819 L 261.100 95.239 264.100 91.822 L 267.100 88.405 268.667 88.402 C 270.581 88.399,270.675 88.130,267.450 91.879 C 265.993 93.574,264.800 95.011,264.800 95.074 C 264.800 95.136,266.104 96.968,267.698 99.144 C 271.112 103.805,270.987 103.400,269.011 103.400 L 267.422 103.400 265.584 100.850 C 264.573 99.448,263.525 98.003,263.256 97.641 L 262.766 96.982 261.933 97.927 L 261.100 98.872 261.000 101.086 L 260.900 103.300 259.500 103.300 L 258.100 103.300 258.048 95.850 L 257.995 88.400 259.493 88.400 L 260.991 88.400 261.045 91.819 M288.000 89.800 L 288.000 91.200 284.400 91.200 L 280.800 91.200 280.800 92.800 L 280.800 94.400 283.882 94.400 L 286.964 94.400 287.032 95.617 C 287.117 97.143,287.445 97.000,283.867 97.000 L 280.800 97.000 280.800 98.800 L 280.800 100.600 284.500 100.600 L 288.200 100.600 288.200 102.003 L 288.200 103.407 283.050 103.353 L 277.900 103.300 277.847 96.101 C 277.819 92.141,277.838 88.789,277.891 88.651 C 277.965 88.459,279.163 88.400,282.994 88.400 L 288.000 88.400 288.000 89.800 M307.500 89.800 L 307.500 91.100 305.200 91.100 L 302.900 91.100 302.800 97.200 L 302.700 103.300 301.300 103.300 L 299.900 103.300 299.847 97.250 L 299.794 91.200 297.497 91.200 L 295.200 91.200 295.200 89.797 L 295.200 88.394 301.350 88.447 L 307.500 88.500 307.500 89.800 M318.152 95.850 L 318.100 103.300 316.700 103.300 L 315.300 103.300 315.248 95.850 L 315.195 88.400 316.700 88.400 L 318.205 88.400 318.152 95.850 M333.200 93.107 L 336.900 97.797 337.000 93.149 L 337.100 88.500 338.552 88.441 L 340.005 88.382 339.952 95.841 L 339.900 103.300 338.799 103.359 L 337.699 103.417 333.999 98.815 L 330.300 94.213 330.200 98.757 L 330.100 103.300 328.700 103.300 L 327.300 103.300 327.248 95.850 L 327.195 88.400 328.348 88.408 L 329.500 88.416 333.200 93.107 M357.663 88.679 C 358.761 89.009,360.043 89.909,360.716 90.822 C 361.347 91.677,361.368 91.618,360.130 92.470 L 359.060 93.207 358.177 92.324 C 355.291 89.438,351.292 91.519,351.305 95.900 C 351.318 100.275,355.432 102.264,358.559 99.408 C 359.762 98.310,359.489 97.800,357.700 97.800 L 356.200 97.800 356.200 96.700 L 356.200 95.600 359.004 95.600 L 361.809 95.600 361.754 99.450 L 361.700 103.300 360.500 103.300 L 359.300 103.300 359.239 102.571 L 359.178 101.842 358.187 102.509 C 355.198 104.520,350.701 102.999,348.929 99.377 C 345.982 93.353,351.350 86.779,357.663 88.679 M166.445 90.558 C 165.291 90.738,165.200 92.167,166.278 93.179 L 166.724 93.598 167.462 92.922 C 168.796 91.700,168.189 90.286,166.445 90.558 M41.600 95.900 L 41.600 100.600 43.350 100.596 C 46.777 100.587,48.206 99.149,48.196 95.720 C 48.186 92.541,46.759 91.200,43.387 91.200 L 41.600 91.200 41.600 95.900 M241.200 93.500 L 241.200 95.800 242.950 95.800 C 245.774 95.799,246.949 94.797,246.411 92.848 C 246.018 91.423,245.592 91.200,243.265 91.200 L 241.200 91.200 241.200 93.500 M222.763 94.750 L 221.846 97.300 223.649 97.358 C 224.640 97.390,225.492 97.374,225.543 97.323 C 225.650 97.216,224.049 92.574,223.828 92.350 C 223.747 92.267,223.267 93.347,222.763 94.750 M165.425 97.544 C 163.406 99.563,165.743 102.020,168.596 100.878 C 169.634 100.463,169.673 100.563,167.715 98.615 L 166.030 96.939 165.425 97.544 M147.538 117.931 C 151.550 119.835,149.126 130.980,142.200 142.472 C 140.446 145.382,138.274 148.250,137.082 149.232 C 136.542 149.677,135.713 150.594,135.241 151.270 C 134.769 151.947,132.958 153.940,131.217 155.700 C 129.476 157.460,127.943 159.110,127.810 159.366 C 127.360 160.235,123.933 171.200,124.111 171.200 C 124.215 171.200,125.892 168.729,125.897 168.570 C 125.908 168.160,133.996 158.390,135.916 156.467 C 138.645 153.734,140.687 153.320,142.254 155.182 C 143.630 156.818,143.462 157.949,141.090 163.005 C 138.421 168.693,137.595 170.812,137.727 171.627 C 137.799 172.069,137.659 172.923,137.338 174.008 C 135.829 179.112,136.585 179.339,140.808 175.052 C 144.812 170.987,145.400 170.215,145.400 169.028 C 145.400 167.713,147.737 160.449,148.856 158.286 C 149.024 157.961,149.311 157.180,149.494 156.552 C 149.917 155.095,150.506 154.600,151.814 154.600 C 154.832 154.600,155.674 156.337,153.703 158.500 C 153.003 159.268,152.491 160.060,152.279 160.700 C 152.097 161.250,151.829 161.838,151.682 162.007 C 151.111 162.666,150.554 164.318,150.280 166.167 C 150.123 167.230,149.918 168.479,149.826 168.942 C 149.535 170.389,150.853 169.141,151.876 167.000 C 152.208 166.304,154.659 163.057,157.951 158.952 C 161.043 155.097,163.264 154.541,164.595 157.290 C 165.605 159.377,165.085 160.907,162.237 164.224 C 161.612 164.952,160.710 166.302,160.233 167.224 C 159.418 168.800,159.403 168.858,159.978 168.200 C 160.679 167.397,160.764 167.526,160.226 168.573 C 159.511 169.963,158.359 174.625,158.656 174.923 C 159.410 175.677,168.059 168.203,168.786 166.169 C 171.781 157.789,177.956 153.678,182.863 156.796 C 187.053 159.458,181.968 168.244,174.924 170.515 C 173.372 171.016,173.000 171.310,173.000 172.040 C 173.000 172.387,172.721 174.028,172.380 175.686 C 171.231 181.270,171.966 182.535,175.231 180.595 C 176.804 179.661,181.055 175.665,181.521 174.684 C 181.695 174.317,182.649 173.046,183.641 171.859 C 186.650 168.258,187.085 167.563,187.028 166.451 C 186.970 165.342,187.101 165.152,188.600 164.157 C 190.335 163.006,191.777 162.971,192.120 164.072 C 192.194 164.307,192.331 164.550,192.424 164.610 C 192.518 164.671,192.631 165.076,192.675 165.510 C 192.749 166.234,193.397 171.930,193.752 174.972 L 193.900 176.244 194.927 174.772 C 195.492 173.962,196.154 173.120,196.399 172.900 C 196.643 172.680,197.068 172.058,197.342 171.517 C 197.624 170.960,198.893 169.433,200.270 167.994 C 201.607 166.596,203.394 164.688,204.241 163.754 C 206.526 161.233,208.742 160.495,209.917 161.861 C 210.834 162.926,210.500 163.515,208.035 165.185 C 206.504 166.222,204.079 168.400,204.455 168.400 C 204.531 168.400,204.415 168.853,204.197 169.407 C 203.173 172.007,204.795 172.924,207.512 171.281 C 208.165 170.886,209.060 170.379,209.500 170.154 C 210.639 169.573,213.791 166.303,214.343 165.132 C 215.522 162.627,217.484 160.092,218.797 159.378 C 219.184 159.167,219.930 158.686,220.455 158.309 C 223.205 156.333,226.126 158.023,227.405 162.329 L 227.651 163.158 228.690 162.118 C 230.913 159.895,232.906 159.848,234.345 161.984 C 235.012 162.974,234.916 163.698,233.818 165.943 C 232.525 168.588,231.761 170.721,231.769 171.666 C 231.773 172.088,231.601 173.213,231.388 174.166 C 229.340 183.320,232.295 181.273,241.063 167.463 C 241.565 166.672,242.202 165.877,242.479 165.695 C 245.822 163.505,238.812 176.992,233.917 182.169 C 228.432 187.970,223.491 181.524,226.122 172.000 C 226.951 168.999,226.946 168.959,225.912 170.400 C 225.398 171.115,224.440 172.600,223.782 173.700 C 222.630 175.626,219.827 178.956,218.127 180.417 C 216.915 181.459,214.241 181.511,213.298 180.511 C 211.812 178.937,211.281 175.964,211.868 172.514 L 212.035 171.527 211.338 172.140 C 207.693 175.340,202.335 174.961,201.833 171.467 L 201.700 170.544 200.100 172.399 C 196.882 176.131,195.468 178.006,194.571 179.734 C 193.698 181.417,193.517 181.945,192.993 184.340 C 192.475 186.706,190.209 187.308,188.417 185.556 C 187.292 184.456,186.812 181.021,187.472 178.800 C 187.682 178.094,187.700 177.252,187.557 174.900 C 187.419 172.646,187.435 171.713,187.619 171.149 C 188.012 169.947,187.740 170.089,186.480 171.745 C 185.831 172.598,184.619 174.107,183.786 175.098 C 182.954 176.089,181.641 177.755,180.868 178.800 C 176.958 184.091,173.995 185.571,170.657 183.901 C 166.975 182.059,165.944 179.576,166.774 174.545 C 166.970 173.360,167.073 172.460,167.004 172.545 C 166.935 172.630,166.479 173.237,165.989 173.894 C 162.861 178.092,160.638 179.529,158.742 178.577 C 155.308 176.853,154.646 175.484,155.108 171.067 C 155.439 167.910,156.862 163.600,157.573 163.600 C 157.664 163.600,157.881 163.240,158.054 162.800 C 158.488 161.695,158.424 161.752,156.872 163.850 C 156.120 164.868,155.090 166.150,154.583 166.700 C 153.642 167.720,150.772 172.080,149.874 173.850 C 149.479 174.630,149.322 174.785,149.107 174.606 C 148.920 174.451,148.795 174.446,148.706 174.590 C 148.369 175.136,146.777 174.592,146.132 173.711 C 145.898 173.390,145.689 173.641,144.113 176.127 C 139.720 183.054,138.169 184.372,135.337 183.586 C 134.544 183.366,131.600 180.781,131.600 180.305 C 131.600 180.171,131.442 179.755,131.250 179.381 C 130.034 177.016,132.362 168.441,135.506 163.705 C 135.918 163.084,136.370 162.243,136.511 161.838 C 136.652 161.432,137.089 160.338,137.483 159.407 L 138.199 157.715 137.075 158.807 C 136.457 159.408,135.092 160.980,134.040 162.300 C 132.989 163.620,131.673 165.272,131.115 165.970 C 130.557 166.669,129.857 167.366,129.559 167.520 C 129.262 167.674,128.690 168.363,128.288 169.050 C 127.887 169.738,126.884 171.226,126.061 172.357 C 124.275 174.811,122.400 177.761,122.400 178.116 C 122.400 178.515,121.402 179.200,120.823 179.199 C 119.251 179.197,118.400 177.858,118.400 175.387 L 118.400 173.761 116.981 175.597 C 114.469 178.847,113.069 179.274,110.150 177.679 C 108.007 176.508,105.751 171.729,106.831 170.649 C 106.958 170.522,107.087 169.942,107.117 169.359 C 107.252 166.793,108.834 162.499,109.962 161.640 C 111.139 160.743,114.147 161.224,115.180 162.474 C 115.558 162.932,115.174 164.234,114.506 164.759 C 114.048 165.120,113.719 165.730,113.244 167.100 C 113.130 167.430,112.620 168.705,112.111 169.933 C 110.425 174.000,110.793 175.888,113.043 174.714 C 114.164 174.130,118.546 170.400,118.112 170.400 C 118.029 170.400,118.231 169.923,118.560 169.341 C 119.002 168.557,119.322 167.454,119.794 165.091 C 121.780 155.127,123.865 148.895,127.919 140.800 C 129.269 138.105,130.436 135.645,130.512 135.334 C 130.589 135.022,130.764 134.724,130.902 134.672 C 131.040 134.619,131.208 134.232,131.275 133.812 C 131.490 132.468,138.000 123.034,140.372 120.629 C 142.953 118.012,145.604 117.014,147.538 117.931 M145.248 122.076 C 144.455 122.979,142.411 126.402,140.397 130.200 C 137.037 136.534,133.000 144.601,133.000 144.979 C 133.000 145.194,132.451 146.794,131.780 148.535 C 131.109 150.276,130.431 152.058,130.272 152.497 L 129.985 153.293 130.710 152.597 C 131.733 151.614,134.267 148.462,134.319 148.108 C 134.343 147.946,134.674 147.427,135.054 146.956 C 141.278 139.242,148.255 124.245,146.714 121.893 C 146.280 121.231,145.954 121.272,145.248 122.076 M343.311 124.177 C 345.256 125.061,346.215 127.061,346.343 130.500 C 346.418 132.522,346.340 133.502,345.833 136.905 C 345.529 138.953,340.857 147.441,338.240 150.700 C 336.635 152.699,332.497 156.800,332.084 156.800 C 331.893 156.800,331.228 157.273,330.608 157.850 C 329.987 158.428,329.026 159.140,328.471 159.433 C 327.763 159.806,327.359 160.183,327.115 160.696 C 326.538 161.913,324.038 174.680,324.267 175.247 C 324.323 175.386,324.376 175.249,324.384 174.943 C 324.403 174.292,324.933 173.400,325.302 173.400 C 325.545 173.400,325.798 173.004,325.914 172.440 C 326.177 171.162,332.667 164.334,334.859 163.031 C 338.845 160.658,341.800 163.307,341.800 169.253 L 341.800 170.226 342.589 169.782 C 343.275 169.397,346.458 167.056,348.025 165.785 C 348.600 165.319,349.229 165.465,349.481 166.123 C 349.633 166.519,349.107 167.400,348.717 167.400 C 348.567 167.400,348.390 167.612,348.325 167.870 C 348.246 168.186,347.812 168.551,347.004 168.982 C 346.342 169.335,345.472 170.017,345.070 170.498 C 344.668 170.979,344.140 171.422,343.898 171.483 C 343.293 171.635,340.889 174.207,339.158 176.555 C 334.542 182.818,331.085 184.573,328.624 181.903 C 327.359 180.531,327.585 179.693,329.561 178.425 C 330.847 177.600,335.312 172.546,335.084 172.174 C 335.041 172.105,335.429 171.214,335.946 170.195 C 336.942 168.229,337.332 166.141,336.818 165.522 C 336.386 165.002,333.852 165.988,332.941 167.031 C 331.290 168.920,328.629 172.577,327.885 173.981 C 327.453 174.795,326.789 175.785,326.409 176.181 C 325.685 176.934,325.531 177.254,324.582 179.961 C 323.381 183.386,322.672 183.955,320.800 183.000 C 319.791 182.485,319.244 181.907,318.766 180.850 C 318.554 180.383,318.304 180.000,318.210 180.000 C 317.634 180.000,317.427 176.931,317.805 174.016 C 317.911 173.199,317.972 172.505,317.941 172.474 C 317.837 172.370,314.526 176.417,313.111 178.376 C 308.330 185.000,304.580 186.229,300.467 182.520 C 297.935 180.236,297.751 178.050,299.433 170.211 C 301.777 159.290,309.839 152.558,315.140 157.095 C 318.634 160.086,313.784 167.913,306.820 170.522 C 305.210 171.125,305.091 171.209,304.967 171.833 C 303.109 181.156,303.347 182.575,306.500 180.969 C 308.204 180.101,313.200 175.617,313.200 174.955 C 313.200 174.809,313.930 173.792,314.822 172.695 C 315.714 171.598,316.956 170.025,317.583 169.200 L 318.722 167.700 319.673 163.800 C 320.739 159.429,322.561 153.794,324.360 149.300 C 332.045 130.105,338.250 121.878,343.311 124.177 M139.461 129.067 C 137.173 133.393,135.548 136.539,133.276 141.040 C 131.593 144.374,128.346 153.013,128.658 153.325 C 128.703 153.370,129.153 152.303,129.656 150.954 C 131.211 146.791,133.433 141.870,136.151 136.574 C 138.792 131.427,141.876 125.009,141.762 124.896 C 141.728 124.862,140.692 126.739,139.461 129.067 M340.418 128.743 C 337.955 131.335,337.532 132.163,333.459 142.400 C 330.547 149.720,328.190 156.543,328.671 156.265 C 331.070 154.875,335.359 150.156,340.584 143.157 C 343.309 139.507,344.944 129.749,343.224 127.400 C 342.620 126.576,342.358 126.701,340.418 128.743 M334.681 130.716 C 333.321 132.556,331.947 134.756,330.821 136.900 C 329.732 138.972,330.040 138.532,332.012 135.200 C 332.891 133.715,334.143 131.758,334.796 130.850 C 335.448 129.942,335.941 129.200,335.892 129.200 C 335.843 129.200,335.298 129.882,334.681 130.716 M71.091 135.263 C 73.482 136.585,74.764 140.858,73.891 144.600 C 73.482 146.352,71.786 151.681,70.574 155.023 C 69.494 158.004,68.711 160.579,68.975 160.286 C 69.068 160.184,70.052 158.744,71.161 157.087 C 74.602 151.950,77.970 147.773,82.437 143.106 C 86.183 139.192,88.733 139.064,90.600 142.698 C 92.014 145.449,91.628 148.066,89.263 151.770 C 88.174 153.474,84.347 161.551,82.757 165.500 C 81.295 169.131,80.440 171.985,81.625 169.281 C 82.006 168.411,84.385 164.621,87.514 159.900 C 91.122 154.455,96.456 149.081,99.313 148.012 C 103.897 146.297,107.051 151.199,105.418 157.500 C 105.162 158.488,104.276 160.571,103.102 162.949 C 102.056 165.065,101.200 166.926,101.200 167.083 C 101.200 167.241,100.383 169.334,99.384 171.735 C 92.247 188.893,91.966 192.101,97.597 192.087 C 99.173 192.083,99.758 191.987,101.000 191.529 C 103.518 190.601,103.971 190.491,104.224 190.744 C 104.782 191.302,103.631 192.964,101.538 194.626 C 94.604 200.133,87.284 191.774,89.606 181.000 C 89.831 179.955,90.195 178.200,90.415 177.100 C 90.697 175.683,91.226 174.141,92.228 171.812 C 93.005 170.003,94.117 167.300,94.698 165.805 C 95.671 163.300,99.057 156.231,99.394 156.000 C 99.678 155.805,100.037 154.950,100.096 154.329 C 100.128 153.983,100.270 153.286,100.411 152.781 C 101.671 148.251,96.141 153.001,89.793 161.900 C 88.538 163.660,87.182 165.460,86.780 165.900 C 86.378 166.340,84.925 168.590,83.552 170.900 C 82.180 173.210,80.639 175.771,80.128 176.591 C 79.618 177.411,79.200 178.159,79.200 178.253 C 79.200 179.495,77.679 181.085,76.800 180.762 C 71.771 178.912,73.692 169.804,82.297 154.696 C 85.558 148.972,87.889 143.600,87.112 143.600 C 83.917 143.600,75.474 154.275,65.174 171.336 C 63.248 174.526,61.812 177.720,60.384 181.987 C 59.471 184.712,57.870 185.671,56.242 184.465 C 53.739 182.611,54.244 179.124,58.451 169.200 C 59.547 166.615,60.937 163.240,61.539 161.700 C 62.142 160.160,63.707 156.402,65.016 153.349 C 70.331 140.960,70.979 136.750,67.334 138.273 C 64.423 139.489,59.200 147.716,59.200 151.085 C 59.200 152.338,58.195 152.955,57.242 152.287 C 55.344 150.957,55.413 146.823,57.385 143.701 C 57.813 143.022,58.283 142.069,58.428 141.584 C 59.653 137.490,67.780 133.434,71.091 135.263 M312.604 135.780 C 314.031 137.281,313.757 138.260,311.460 139.870 C 309.702 141.102,309.487 141.319,308.750 142.600 C 308.465 143.095,307.546 144.310,306.707 145.300 C 305.869 146.290,304.627 147.910,303.949 148.900 C 303.271 149.890,302.064 151.579,301.266 152.654 C 300.468 153.728,299.462 155.362,299.030 156.285 C 298.597 157.208,297.833 158.598,297.331 159.373 C 295.706 161.886,293.161 166.437,291.893 169.100 C 291.211 170.530,289.390 174.265,287.846 177.400 C 286.302 180.535,284.807 183.775,284.524 184.600 C 283.767 186.809,283.186 187.131,281.083 186.506 C 280.085 186.210,278.909 185.210,278.406 184.231 C 277.670 182.798,277.812 173.466,278.613 170.593 C 278.842 169.772,279.108 168.200,279.204 167.100 C 279.300 166.000,279.474 164.785,279.591 164.400 C 279.707 164.015,279.898 162.890,280.015 161.900 C 280.300 159.496,280.745 157.592,281.120 157.178 C 281.374 156.897,282.265 153.402,282.120 153.254 C 282.096 153.229,281.721 153.676,281.288 154.247 C 280.854 154.818,279.810 156.118,278.967 157.135 C 278.124 158.151,276.917 159.820,276.286 160.842 C 275.654 161.864,273.901 164.551,272.391 166.813 C 268.050 173.315,263.590 180.780,263.078 182.400 C 262.439 184.426,261.430 185.200,259.430 185.200 C 256.613 185.200,255.604 183.584,256.609 180.681 C 256.834 180.032,257.373 178.240,257.807 176.700 C 258.241 175.160,258.784 173.406,259.015 172.802 C 259.246 172.198,259.462 171.250,259.496 170.694 C 259.586 169.205,260.532 165.049,261.420 162.245 C 261.847 160.895,262.283 159.050,262.389 158.145 C 262.495 157.240,262.764 155.645,262.987 154.600 C 263.211 153.555,263.395 152.352,263.397 151.926 C 263.402 150.594,264.012 146.928,264.333 146.300 C 264.517 145.939,264.677 144.929,264.734 143.762 L 264.829 141.824 264.197 142.062 C 262.321 142.769,262.412 138.957,264.332 136.440 C 265.759 134.570,268.670 134.985,269.811 137.221 C 270.694 138.953,271.134 144.594,270.452 145.446 C 270.260 145.686,270.111 146.622,269.903 148.900 C 269.695 151.162,266.093 170.048,265.481 172.083 C 265.244 172.869,268.424 168.392,270.227 165.400 C 270.724 164.575,272.257 162.415,273.633 160.600 C 275.009 158.785,276.390 156.850,276.702 156.300 C 278.631 152.895,285.813 144.000,286.632 144.000 C 287.858 144.000,289.468 145.393,289.705 146.658 C 289.848 147.419,288.894 150.682,288.584 150.490 C 288.483 150.428,288.400 150.425,288.400 150.485 C 288.400 150.545,288.170 151.383,287.890 152.347 C 287.609 153.311,287.337 154.550,287.286 155.100 C 287.235 155.650,287.062 156.775,286.902 157.600 C 286.157 161.452,285.579 165.155,285.296 167.900 C 285.126 169.550,284.774 171.935,284.515 173.200 C 284.166 174.902,284.071 175.877,284.148 176.948 L 284.253 178.396 285.230 176.148 C 286.329 173.618,286.922 172.426,291.025 164.500 C 293.967 158.817,295.314 156.450,298.367 151.600 C 302.492 145.046,305.630 140.656,308.018 138.097 C 308.838 137.219,309.765 136.162,310.078 135.750 C 310.866 134.712,311.596 134.721,312.604 135.780 M118.189 147.126 C 120.120 148.266,120.242 150.844,118.417 151.922 C 118.076 152.123,117.711 152.564,117.596 152.913 C 117.482 153.258,117.166 153.750,116.894 154.005 C 116.622 154.261,116.400 154.562,116.400 154.674 C 116.400 154.786,116.153 155.148,115.850 155.477 C 115.396 155.971,115.455 155.947,116.186 155.338 C 117.547 154.204,117.803 154.384,116.799 155.770 C 116.468 156.226,116.041 156.600,115.849 156.601 C 115.657 156.601,115.325 156.862,115.112 157.181 C 114.119 158.662,112.573 159.116,111.980 158.100 C 111.334 156.994,111.484 156.088,112.500 154.958 C 112.995 154.407,113.400 153.806,113.400 153.623 C 113.400 153.439,113.668 152.661,113.995 151.894 C 114.577 150.528,114.784 149.200,114.413 149.200 C 114.049 149.200,113.958 148.378,114.282 148.020 C 114.457 147.827,114.600 147.559,114.600 147.425 C 114.600 146.647,117.035 146.444,118.189 147.126 M66.650 150.949 C 65.600 153.719,65.501 154.027,65.864 153.400 C 66.248 152.735,67.644 148.978,67.544 148.878 C 67.501 148.834,67.099 149.767,66.650 150.949 M263.822 154.622 C 263.571 155.838,263.404 156.871,263.451 156.917 C 263.497 156.964,263.741 156.008,263.993 154.793 C 264.244 153.578,264.412 152.545,264.364 152.498 C 264.317 152.450,264.073 153.406,263.822 154.622 M179.379 158.450 C 177.878 160.082,173.891 167.744,174.316 168.180 C 174.852 168.732,181.300 162.448,180.886 161.777 C 180.827 161.682,180.882 161.080,181.008 160.440 C 181.439 158.249,180.556 157.171,179.379 158.450 M310.961 158.798 C 309.509 160.481,305.854 167.721,306.254 168.121 C 306.621 168.488,310.303 165.303,311.827 163.300 C 312.915 161.869,313.321 159.601,312.703 158.405 C 312.271 157.571,311.959 157.641,310.961 158.798 M222.401 161.123 C 221.960 161.521,221.600 161.960,221.600 162.098 C 221.600 162.236,221.380 162.743,221.111 163.225 C 218.808 167.349,216.102 176.800,217.224 176.800 C 217.902 176.800,220.310 173.940,223.540 169.300 C 226.052 165.690,225.915 166.101,225.308 163.992 C 225.025 163.008,224.813 161.941,224.838 161.621 C 224.943 160.242,223.665 159.981,222.401 161.123 M94.993 167.831 C 94.753 168.639,93.982 170.597,93.278 172.182 C 92.574 173.768,92.028 175.094,92.064 175.130 C 92.100 175.166,92.654 174.049,93.295 172.648 C 94.449 170.129,95.704 166.637,95.522 166.456 C 95.471 166.404,95.232 167.023,94.993 167.831 M260.229 168.529 C 259.872 169.694,259.615 170.682,259.658 170.725 C 259.701 170.767,260.028 169.850,260.386 168.686 C 260.743 167.522,261.000 166.533,260.956 166.490 C 260.913 166.446,260.585 167.364,260.229 168.529 M192.434 168.500 C 192.412 169.050,192.348 169.725,192.292 170.000 L 192.189 170.500 192.403 170.008 C 192.521 169.738,192.586 169.063,192.546 168.508 L 192.474 167.500 192.434 168.500 M167.957 172.430 C 167.591 173.556,167.380 174.719,167.308 176.000 L 167.201 177.900 167.490 176.900 C 168.538 173.276,168.943 169.396,167.957 172.430 M299.760 172.800 C 299.429 173.840,299.180 175.160,299.118 176.200 L 299.017 177.900 299.310 176.900 C 300.406 173.156,300.806 169.507,299.760 172.800 M334.634 173.774 C 334.182 174.420,333.219 175.702,332.496 176.624 L 331.181 178.300 332.291 177.140 C 333.411 175.970,335.823 172.600,335.541 172.600 C 335.495 172.600,335.087 173.128,334.634 173.774 " stroke="none" fill="#fcfcfb" fill-rule="evenodd"></path><path id="path2" d="M40.150 88.549 C 40.948 88.586,42.252 88.586,43.050 88.549 C 43.848 88.511,43.195 88.479,41.600 88.479 C 40.005 88.479,39.352 88.511,40.150 88.549 M62.062 88.550 C 63.471 88.584,65.721 88.584,67.062 88.549 C 68.403 88.515,67.250 88.487,64.500 88.487 C 61.750 88.487,60.653 88.515,62.062 88.550 M97.450 88.546 C 97.863 88.589,98.538 88.589,98.950 88.546 C 99.363 88.503,99.025 88.467,98.200 88.467 C 97.375 88.467,97.038 88.503,97.450 88.546 M130.794 88.549 C 131.396 88.590,132.026 88.731,132.194 88.862 C 132.462 89.070,132.466 89.056,132.226 88.750 C 132.015 88.481,131.690 88.409,130.826 88.437 L 129.700 88.474 130.794 88.549 M194.800 88.523 C 195.974 88.673,197.555 88.688,197.470 88.550 C 197.418 88.468,196.684 88.413,195.838 88.430 C 194.992 88.446,194.525 88.489,194.800 88.523 M206.955 88.547 C 207.426 88.589,208.146 88.588,208.555 88.545 C 208.965 88.502,208.580 88.468,207.700 88.469 C 206.820 88.469,206.485 88.504,206.955 88.547 M222.900 88.519 C 223.837 88.669,225.155 88.688,225.069 88.550 C 225.018 88.468,224.419 88.412,223.738 88.427 C 223.057 88.442,222.680 88.483,222.900 88.519 M238.330 88.550 C 238.279 88.633,239.286 88.676,240.569 88.648 C 244.729 88.555,245.172 88.476,241.762 88.438 C 239.926 88.417,238.382 88.468,238.330 88.550 M267.600 88.523 C 268.796 88.673,270.200 88.688,270.200 88.550 C 270.200 88.468,269.502 88.413,268.650 88.430 C 267.798 88.446,267.325 88.488,267.600 88.523 M280.462 88.550 C 281.871 88.584,284.121 88.584,285.462 88.549 C 286.803 88.515,285.650 88.487,282.900 88.487 C 280.150 88.487,279.053 88.515,280.462 88.550 M298.262 88.550 C 300.002 88.583,302.792 88.583,304.462 88.550 C 306.133 88.516,304.710 88.489,301.300 88.489 C 297.890 88.489,296.523 88.516,298.262 88.550 M315.291 88.651 C 315.238 88.789,315.220 92.141,315.250 96.101 L 315.305 103.300 315.353 95.959 L 315.400 88.618 316.750 88.548 L 318.100 88.478 316.744 88.439 C 315.810 88.412,315.357 88.478,315.291 88.651 M327.850 88.543 C 328.153 88.589,328.648 88.589,328.950 88.543 C 329.253 88.497,329.005 88.460,328.400 88.460 C 327.795 88.460,327.548 88.497,327.850 88.543 M142.490 95.800 C 142.490 99.815,142.517 101.458,142.550 99.450 C 142.582 97.443,142.582 94.158,142.550 92.150 C 142.517 90.143,142.490 91.785,142.490 95.800 M96.690 95.800 C 96.690 99.705,96.717 101.303,96.750 99.350 C 96.782 97.398,96.782 94.203,96.750 92.250 C 96.717 90.298,96.690 91.895,96.690 95.800 M299.889 97.100 C 299.889 100.510,299.916 101.933,299.950 100.262 C 299.983 98.592,299.983 95.802,299.950 94.062 C 299.916 92.323,299.889 93.690,299.889 97.100 M41.441 95.838 C 41.419 98.444,41.468 100.618,41.550 100.669 C 41.633 100.721,41.677 99.354,41.648 97.631 C 41.551 91.704,41.482 91.111,41.441 95.838 M330.086 98.600 C 330.086 101.185,330.115 102.243,330.149 100.950 C 330.184 99.658,330.184 97.543,330.149 96.250 C 330.115 94.958,330.086 96.015,330.086 98.600 M110.650 95.900 C 110.653 96.340,110.694 96.496,110.741 96.248 C 110.789 95.999,110.787 95.639,110.737 95.448 C 110.687 95.256,110.648 95.460,110.650 95.900 M351.050 95.900 C 351.053 96.340,351.094 96.496,351.141 96.248 C 351.189 95.999,351.187 95.639,351.137 95.448 C 351.087 95.256,351.048 95.460,351.050 95.900 M63.959 96.949 C 64.872 96.986,66.312 96.986,67.159 96.948 C 68.007 96.911,67.260 96.881,65.500 96.881 C 63.740 96.881,63.047 96.912,63.959 96.949 M282.250 96.949 C 283.103 96.986,284.498 96.986,285.350 96.949 C 286.203 96.911,285.505 96.880,283.800 96.880 C 282.095 96.880,281.397 96.911,282.250 96.949 M241.850 98.346 C 242.263 98.389,242.938 98.389,243.350 98.346 C 243.763 98.303,243.425 98.267,242.600 98.267 C 241.775 98.267,241.438 98.303,241.850 98.346 M359.254 102.400 C 359.254 102.895,359.293 103.097,359.341 102.850 C 359.389 102.603,359.389 102.198,359.341 101.950 C 359.293 101.703,359.254 101.905,359.254 102.400 M118.850 102.500 C 118.853 102.940,118.894 103.096,118.941 102.848 C 118.989 102.599,118.987 102.239,118.937 102.048 C 118.887 101.856,118.848 102.060,118.850 102.500 M341.617 127.276 L 341.134 127.900 341.707 127.356 C 342.021 127.057,342.239 126.776,342.189 126.732 C 342.140 126.689,341.883 126.933,341.617 127.276 M135.440 146.440 C 135.308 146.572,135.200 146.812,135.200 146.973 C 135.200 147.251,135.497 147.114,135.503 146.833 C 135.505 146.760,135.578 146.588,135.665 146.450 C 135.866 146.133,135.752 146.128,135.440 146.440 M134.451 147.793 C 134.249 148.116,134.255 148.166,134.487 148.077 C 134.790 147.961,135.084 147.400,134.842 147.400 C 134.762 147.400,134.586 147.577,134.451 147.793 M333.491 152.050 L 332.700 152.900 333.550 152.109 C 334.018 151.675,334.400 151.292,334.400 151.259 C 334.400 151.108,334.226 151.260,333.491 152.050 M334.593 154.550 L 333.500 155.700 334.650 154.607 C 335.718 153.591,335.892 153.400,335.743 153.400 C 335.712 153.400,335.194 153.918,334.593 154.550 M116.100 155.000 C 116.032 155.110,116.041 155.200,116.119 155.200 C 116.198 155.200,116.091 155.403,115.882 155.650 C 115.532 156.065,115.545 156.063,116.045 155.621 C 116.344 155.357,116.540 155.065,116.482 154.971 C 116.344 154.748,116.251 154.755,116.100 155.000 M328.342 155.600 C 328.285 155.820,328.309 156.000,328.395 156.000 C 328.482 156.000,328.600 155.820,328.658 155.600 C 328.715 155.380,328.691 155.200,328.605 155.200 C 328.518 155.200,328.400 155.380,328.342 155.600 M178.850 155.738 C 179.043 155.788,179.358 155.788,179.550 155.738 C 179.743 155.688,179.585 155.646,179.200 155.646 C 178.815 155.646,178.658 155.688,178.850 155.738 M135.887 156.450 L 135.300 157.100 135.950 156.513 C 136.308 156.190,136.600 155.897,136.600 155.863 C 136.600 155.708,136.435 155.844,135.887 156.450 M286.744 156.866 C 286.521 157.433,286.558 157.722,286.819 157.461 C 286.939 157.341,287.004 157.075,286.963 156.871 C 286.891 156.513,286.883 156.513,286.744 156.866 M331.600 165.700 C 331.114 166.195,330.762 166.600,330.817 166.600 C 330.872 166.600,331.314 166.195,331.800 165.700 C 332.286 165.205,332.638 164.800,332.583 164.800 C 332.528 164.800,332.086 165.205,331.600 165.700 M312.989 166.150 L 312.300 166.900 313.050 166.211 C 313.748 165.569,313.892 165.400,313.739 165.400 C 313.706 165.400,313.368 165.738,312.989 166.150 M205.400 167.100 C 204.914 167.595,204.562 168.000,204.617 168.000 C 204.672 168.000,205.114 167.595,205.600 167.100 C 206.086 166.605,206.438 166.200,206.383 166.200 C 206.328 166.200,205.886 166.605,205.400 167.100 M326.975 170.900 C 326.961 170.955,326.939 171.074,326.925 171.164 C 326.911 171.255,326.738 171.490,326.540 171.688 C 326.343 171.886,326.232 172.099,326.295 172.162 C 326.426 172.292,327.072 171.430,327.128 171.051 C 327.162 170.815,327.029 170.683,326.975 170.900 M217.240 172.640 C 217.108 172.772,217.000 173.012,217.000 173.173 C 217.000 173.451,217.297 173.314,217.303 173.033 C 217.305 172.960,217.378 172.788,217.465 172.650 C 217.666 172.333,217.552 172.328,217.240 172.640 M167.246 175.200 C 167.246 175.585,167.288 175.743,167.338 175.550 C 167.388 175.358,167.388 175.043,167.338 174.850 C 167.288 174.658,167.246 174.815,167.246 175.200 M278.046 175.400 C 278.046 175.785,278.088 175.942,278.138 175.750 C 278.188 175.558,278.188 175.243,278.138 175.050 C 278.088 174.858,278.046 175.015,278.046 175.400 M317.660 177.400 C 317.660 178.005,317.697 178.253,317.743 177.950 C 317.789 177.648,317.789 177.153,317.743 176.850 C 317.697 176.548,317.660 176.795,317.660 177.400 M332.304 177.195 C 332.108 177.413,331.846 177.533,331.723 177.463 C 331.600 177.393,331.567 177.410,331.648 177.500 C 331.730 177.590,331.689 177.806,331.557 177.982 C 331.425 178.157,331.651 177.990,332.059 177.611 C 332.466 177.232,332.800 176.894,332.800 176.861 C 332.800 176.717,332.639 176.826,332.304 177.195 M167.046 179.000 C 167.046 179.385,167.088 179.543,167.138 179.350 C 167.188 179.158,167.188 178.843,167.138 178.650 C 167.088 178.458,167.046 178.615,167.046 179.000 " stroke="none" fill="#fce3ae" fill-rule="evenodd"></path><path id="path3" d="M82.450 88.543 C 82.752 88.589,83.248 88.589,83.550 88.543 C 83.853 88.497,83.605 88.460,83.000 88.460 C 82.395 88.460,82.148 88.497,82.450 88.543 M114.450 88.543 C 114.753 88.589,115.248 88.589,115.550 88.543 C 115.853 88.497,115.605 88.460,115.000 88.460 C 114.395 88.460,114.147 88.497,114.450 88.543 M354.850 88.543 C 355.153 88.589,355.648 88.589,355.950 88.543 C 356.253 88.497,356.005 88.460,355.400 88.460 C 354.795 88.460,354.548 88.497,354.850 88.543 M38.691 95.900 C 38.691 99.970,38.717 101.607,38.750 99.537 C 38.782 97.467,38.782 94.137,38.750 92.137 C 38.717 90.137,38.690 91.830,38.691 95.900 M69.464 89.800 C 69.464 90.515,69.500 90.808,69.545 90.450 C 69.589 90.093,69.589 89.508,69.545 89.150 C 69.500 88.793,69.464 89.085,69.464 89.800 M99.490 95.800 C 99.490 99.815,99.517 101.458,99.550 99.450 C 99.582 97.443,99.582 94.158,99.550 92.150 C 99.517 90.143,99.490 91.785,99.490 95.800 M139.557 93.400 C 139.526 96.040,139.567 98.200,139.650 98.200 C 139.733 98.200,139.800 96.040,139.800 93.400 C 139.800 90.760,139.758 88.600,139.707 88.600 C 139.656 88.600,139.588 90.760,139.557 93.400 M258.091 95.900 C 258.091 99.970,258.117 101.607,258.150 99.537 C 258.182 97.467,258.182 94.137,258.150 92.137 C 258.117 90.137,258.090 91.830,258.091 95.900 M287.864 89.800 C 287.864 90.515,287.900 90.808,287.945 90.450 C 287.989 90.093,287.989 89.508,287.945 89.150 C 287.900 88.793,287.864 89.085,287.864 89.800 M318.091 95.900 C 318.091 99.970,318.117 101.607,318.150 99.537 C 318.182 97.467,318.182 94.137,318.150 92.137 C 318.117 90.137,318.090 91.830,318.091 95.900 M327.291 95.900 C 327.291 99.970,327.317 101.607,327.350 99.537 C 327.382 97.467,327.382 94.137,327.350 92.137 C 327.317 90.137,327.290 91.830,327.291 95.900 M339.891 95.900 C 339.891 99.970,339.917 101.607,339.950 99.537 C 339.982 97.467,339.982 94.137,339.950 92.137 C 339.917 90.137,339.890 91.830,339.891 95.900 M238.290 96.000 C 238.290 100.015,238.317 101.658,238.350 99.650 C 238.382 97.643,238.382 94.358,238.350 92.350 C 238.317 90.343,238.290 91.985,238.290 96.000 M260.882 92.200 C 260.882 94.125,260.912 94.913,260.949 93.950 C 260.986 92.988,260.986 91.413,260.949 90.450 C 260.912 89.488,260.882 90.275,260.882 92.200 M119.000 89.663 C 119.000 89.697,119.293 89.990,119.650 90.313 L 120.300 90.900 119.713 90.250 C 119.165 89.644,119.000 89.508,119.000 89.663 M109.887 90.650 L 109.300 91.300 109.950 90.713 C 110.308 90.390,110.600 90.097,110.600 90.063 C 110.600 89.908,110.435 90.044,109.887 90.650 M114.552 90.941 C 114.801 90.989,115.161 90.987,115.352 90.937 C 115.544 90.887,115.340 90.848,114.900 90.850 C 114.460 90.853,114.304 90.894,114.552 90.941 M354.952 90.941 C 355.201 90.989,355.561 90.987,355.752 90.937 C 355.944 90.887,355.740 90.848,355.300 90.850 C 354.860 90.853,354.704 90.894,354.952 90.941 M241.090 93.450 L 241.100 95.900 243.050 95.911 L 245.001 95.923 243.107 95.854 L 241.212 95.786 241.146 93.393 L 241.081 90.999 241.090 93.450 M302.689 97.100 C 302.689 100.510,302.716 101.933,302.750 100.262 C 302.783 98.592,302.783 95.802,302.750 94.062 C 302.716 92.323,302.689 93.690,302.689 97.100 M280.670 92.800 C 280.670 93.735,280.704 94.118,280.746 93.650 C 280.789 93.183,280.789 92.418,280.746 91.950 C 280.704 91.483,280.670 91.865,280.670 92.800 M77.660 93.000 C 77.660 93.605,77.697 93.853,77.743 93.550 C 77.789 93.248,77.789 92.752,77.743 92.450 C 77.697 92.148,77.660 92.395,77.660 93.000 M63.959 94.749 C 64.872 94.786,66.312 94.786,67.159 94.748 C 68.007 94.711,67.260 94.681,65.500 94.681 C 63.740 94.681,63.047 94.712,63.959 94.749 M282.259 94.749 C 283.117 94.786,284.467 94.786,285.259 94.748 C 286.052 94.710,285.350 94.680,283.700 94.680 C 282.050 94.680,281.402 94.711,282.259 94.749 M107.862 95.900 C 107.863 96.560,107.900 96.806,107.945 96.446 C 107.989 96.087,107.989 95.547,107.943 95.246 C 107.897 94.946,107.861 95.240,107.862 95.900 M348.260 95.800 C 348.260 96.405,348.297 96.653,348.343 96.350 C 348.389 96.048,348.389 95.553,348.343 95.250 C 348.297 94.948,348.260 95.195,348.260 95.800 M286.854 95.800 C 286.854 96.295,286.893 96.498,286.941 96.250 C 286.989 96.002,286.989 95.598,286.941 95.350 C 286.893 95.103,286.854 95.305,286.854 95.800 M48.450 95.900 C 48.453 96.340,48.494 96.496,48.541 96.248 C 48.589 95.999,48.587 95.639,48.537 95.448 C 48.487 95.256,48.448 95.460,48.450 95.900 M172.354 95.345 C 172.713 95.389,173.253 95.389,173.554 95.343 C 173.854 95.297,173.560 95.261,172.900 95.262 C 172.240 95.263,171.994 95.300,172.354 95.345 M117.250 95.748 C 117.993 95.787,119.208 95.787,119.950 95.748 C 120.692 95.710,120.085 95.678,118.600 95.678 C 117.115 95.678,116.508 95.710,117.250 95.748 M169.685 96.940 C 170.885 98.188,171.400 98.523,171.400 98.055 C 171.400 97.988,171.337 97.996,171.261 98.072 C 171.184 98.149,170.487 97.601,169.711 96.856 L 168.300 95.500 169.685 96.940 M357.650 95.748 C 358.393 95.787,359.608 95.787,360.350 95.748 C 361.093 95.710,360.485 95.678,359.000 95.678 C 357.515 95.678,356.908 95.710,357.650 95.748 M280.672 98.800 C 280.672 99.845,280.706 100.273,280.747 99.750 C 280.788 99.228,280.788 98.373,280.747 97.850 C 280.706 97.328,280.672 97.755,280.672 98.800 M221.651 97.400 C 221.717 97.641,222.141 97.702,223.816 97.712 L 225.900 97.724 223.907 97.654 C 222.648 97.610,221.851 97.495,221.742 97.342 C 221.619 97.169,221.593 97.186,221.651 97.400 M116.755 97.747 C 117.226 97.789,117.946 97.788,118.355 97.745 C 118.765 97.702,118.380 97.668,117.500 97.669 C 116.620 97.669,116.285 97.704,116.755 97.747 M357.155 97.747 C 357.626 97.789,358.346 97.788,358.755 97.745 C 359.165 97.702,358.780 97.668,357.900 97.669 C 357.020 97.669,356.685 97.704,357.155 97.747 M88.454 99.000 C 88.454 99.495,88.493 99.698,88.541 99.450 C 88.589 99.203,88.589 98.798,88.541 98.550 C 88.493 98.303,88.454 98.505,88.454 99.000 M241.078 100.700 C 241.078 102.130,241.110 102.689,241.148 101.942 C 241.187 101.195,241.187 100.025,241.148 99.342 C 241.109 98.659,241.077 99.270,241.078 100.700 M118.287 99.450 L 117.700 100.100 118.350 99.513 C 118.708 99.190,119.000 98.897,119.000 98.863 C 119.000 98.708,118.835 98.844,118.287 99.450 M260.876 101.000 C 260.876 102.265,260.908 102.783,260.948 102.150 C 260.987 101.517,260.987 100.483,260.948 99.850 C 260.908 99.218,260.876 99.735,260.876 101.000 M168.876 99.734 C 169.230 100.128,169.387 100.468,169.293 100.634 C 169.170 100.850,169.193 100.852,169.414 100.647 C 169.641 100.436,169.571 100.286,168.998 99.747 L 168.309 99.100 168.876 99.734 M221.130 99.550 C 221.079 99.633,221.861 99.676,222.868 99.647 C 226.177 99.550,226.543 99.473,223.862 99.436 C 222.411 99.416,221.182 99.468,221.130 99.550 M77.290 100.819 C 77.114 101.159,77.006 101.473,77.049 101.516 C 77.093 101.559,77.278 101.281,77.461 100.897 C 77.872 100.035,77.730 99.969,77.290 100.819 M173.900 101.400 C 174.553 102.060,175.132 102.600,175.187 102.600 C 175.242 102.600,174.753 102.060,174.100 101.400 C 173.447 100.740,172.868 100.200,172.813 100.200 C 172.758 100.200,173.247 100.740,173.900 101.400 M200.983 100.663 C 201.073 100.753,201.497 100.797,201.924 100.759 L 202.700 100.692 201.759 100.595 C 201.242 100.542,200.893 100.573,200.983 100.663 M49.087 101.250 L 48.500 101.900 49.150 101.313 C 49.508 100.990,49.800 100.697,49.800 100.663 C 49.800 100.508,49.635 100.644,49.087 101.250 M110.000 101.300 C 110.373 101.685,110.723 102.000,110.778 102.000 C 110.833 102.000,110.573 101.685,110.200 101.300 C 109.827 100.915,109.477 100.600,109.422 100.600 C 109.367 100.600,109.627 100.915,110.000 101.300 M350.400 101.300 C 350.773 101.685,351.123 102.000,351.178 102.000 C 351.233 102.000,350.973 101.685,350.600 101.300 C 350.227 100.915,349.877 100.600,349.822 100.600 C 349.767 100.600,350.027 100.915,350.400 101.300 M69.664 102.000 C 69.664 102.715,69.700 103.008,69.745 102.650 C 69.789 102.293,69.789 101.708,69.745 101.350 C 69.700 100.993,69.664 101.285,69.664 102.000 M82.650 100.943 C 82.953 100.989,83.448 100.989,83.750 100.943 C 84.053 100.897,83.805 100.860,83.200 100.860 C 82.595 100.860,82.348 100.897,82.650 100.943 M114.752 100.941 C 115.001 100.989,115.361 100.987,115.552 100.937 C 115.744 100.887,115.540 100.848,115.100 100.850 C 114.660 100.853,114.504 100.894,114.752 100.941 M288.062 101.900 C 288.063 102.560,288.100 102.806,288.145 102.446 C 288.189 102.087,288.189 101.547,288.143 101.246 C 288.097 100.946,288.061 101.240,288.062 101.900 M355.152 100.941 C 355.401 100.989,355.761 100.987,355.952 100.937 C 356.144 100.887,355.940 100.848,355.500 100.850 C 355.060 100.853,354.904 100.894,355.152 100.941 M166.750 101.341 C 166.998 101.389,167.403 101.389,167.650 101.341 C 167.898 101.293,167.695 101.254,167.200 101.254 C 166.705 101.254,166.503 101.293,166.750 101.341 M338.238 126.808 C 337.997 127.032,337.800 127.273,337.800 127.343 C 337.800 127.413,338.025 127.258,338.300 127.000 C 338.769 126.559,338.885 126.400,338.738 126.400 C 338.703 126.400,338.478 126.584,338.238 126.808 M336.487 128.242 C 336.164 128.596,336.035 128.783,336.200 128.659 C 336.365 128.535,336.590 128.426,336.700 128.417 C 336.810 128.408,336.901 128.333,336.903 128.250 C 336.905 128.167,336.978 127.988,337.065 127.850 C 337.344 127.410,337.092 127.581,336.487 128.242 M346.267 131.200 C 346.267 132.025,346.303 132.363,346.346 131.950 C 346.389 131.537,346.389 130.863,346.346 130.450 C 346.303 130.037,346.267 130.375,346.267 131.200 M344.050 132.500 C 344.053 132.940,344.094 133.096,344.141 132.848 C 344.189 132.599,344.187 132.239,344.137 132.048 C 344.087 131.856,344.048 132.060,344.050 132.500 M60.400 138.900 C 59.914 139.395,59.562 139.800,59.617 139.800 C 59.672 139.800,60.114 139.395,60.600 138.900 C 61.086 138.405,61.438 138.000,61.383 138.000 C 61.328 138.000,60.886 138.405,60.400 138.900 M140.443 139.049 C 140.321 139.297,140.028 139.792,139.791 140.150 C 139.554 140.508,139.445 140.800,139.549 140.800 C 139.761 140.800,140.888 138.821,140.752 138.686 C 140.704 138.638,140.565 138.801,140.443 139.049 M82.687 142.850 L 82.100 143.500 82.750 142.913 C 83.356 142.365,83.492 142.200,83.337 142.200 C 83.303 142.200,83.010 142.493,82.687 142.850 M327.213 143.828 C 326.871 144.724,326.629 145.496,326.676 145.543 C 326.764 145.631,327.600 143.519,327.600 143.207 C 327.600 143.109,327.736 142.893,327.902 142.727 C 328.067 142.561,328.120 142.374,328.019 142.312 C 327.918 142.250,327.556 142.932,327.213 143.828 M265.432 145.634 C 265.414 145.927,265.342 146.332,265.271 146.534 C 265.171 146.815,265.198 146.848,265.385 146.675 C 265.522 146.549,265.593 146.155,265.547 145.775 C 265.479 145.226,265.458 145.200,265.432 145.634 M91.250 146.100 C 91.253 146.540,91.294 146.696,91.341 146.448 C 91.389 146.199,91.387 145.839,91.337 145.648 C 91.287 145.456,91.248 145.660,91.250 146.100 M68.247 146.383 C 68.379 146.558,68.512 146.738,68.543 146.783 C 68.575 146.829,68.600 146.687,68.600 146.467 C 68.600 146.246,68.467 146.067,68.303 146.067 C 68.065 146.067,68.053 146.129,68.247 146.383 M134.985 147.050 C 134.813 147.610,134.859 147.800,135.114 147.589 C 135.269 147.460,135.346 147.275,135.286 147.177 C 135.182 147.010,135.018 146.940,134.985 147.050 M95.389 150.750 L 94.700 151.500 95.450 150.811 C 96.148 150.169,96.292 150.000,96.139 150.000 C 96.106 150.000,95.768 150.338,95.389 150.750 M336.687 152.250 L 336.100 152.900 336.750 152.313 C 337.356 151.765,337.492 151.600,337.337 151.600 C 337.303 151.600,337.010 151.893,336.687 152.250 M93.687 152.450 L 93.100 153.100 93.750 152.513 C 94.356 151.965,94.492 151.800,94.337 151.800 C 94.303 151.800,94.010 152.093,93.687 152.450 M95.894 154.050 L 94.700 155.300 95.950 154.106 C 97.111 152.997,97.292 152.800,97.144 152.800 C 97.113 152.800,96.550 153.363,95.894 154.050 M131.600 155.100 C 130.781 155.925,130.155 156.600,130.210 156.600 C 130.265 156.600,130.981 155.925,131.800 155.100 C 132.619 154.275,133.245 153.600,133.190 153.600 C 133.135 153.600,132.419 154.275,131.600 155.100 M328.637 154.699 C 328.511 154.975,328.486 155.200,328.581 155.200 C 328.747 155.200,329.046 154.380,328.925 154.258 C 328.892 154.225,328.762 154.424,328.637 154.699 M64.722 155.683 C 64.823 155.948,64.797 156.022,64.636 155.922 C 64.482 155.827,64.447 155.890,64.532 156.112 C 64.650 156.419,64.674 156.418,64.851 156.103 C 64.979 155.874,64.965 155.685,64.809 155.531 C 64.632 155.356,64.612 155.392,64.722 155.683 M111.650 156.700 C 111.653 157.140,111.694 157.296,111.741 157.048 C 111.789 156.799,111.787 156.439,111.737 156.248 C 111.687 156.056,111.648 156.260,111.650 156.700 M115.098 156.365 C 115.152 156.419,115.096 156.584,114.974 156.732 C 114.851 156.879,114.824 157.000,114.913 157.000 C 115.002 157.000,114.810 157.293,114.487 157.650 L 113.900 158.300 114.543 157.719 C 114.896 157.400,115.138 157.062,115.080 156.968 C 115.022 156.874,115.115 156.743,115.287 156.677 C 115.685 156.525,115.693 156.267,115.300 156.267 C 115.135 156.267,115.044 156.311,115.098 156.365 M63.900 157.424 C 63.967 157.603,63.880 157.892,63.704 158.067 C 63.529 158.242,63.386 158.433,63.387 158.490 C 63.387 158.548,63.211 159.008,62.994 159.514 C 62.356 161.002,62.559 160.819,63.425 159.125 C 64.024 157.953,64.172 157.492,64.003 157.325 C 63.835 157.158,63.808 157.183,63.900 157.424 M286.546 157.721 C 286.466 157.801,286.403 158.054,286.406 158.283 C 286.412 158.668,286.428 158.673,286.620 158.342 C 286.844 157.958,286.787 157.480,286.546 157.721 M316.254 160.000 C 316.254 160.495,316.293 160.697,316.341 160.450 C 316.389 160.203,316.389 159.798,316.341 159.550 C 316.293 159.303,316.254 159.505,316.254 160.000 M312.846 161.600 C 312.846 161.985,312.888 162.143,312.938 161.950 C 312.988 161.758,312.988 161.442,312.938 161.250 C 312.888 161.058,312.846 161.215,312.846 161.600 M347.287 166.450 L 346.700 167.100 347.350 166.513 C 347.956 165.965,348.092 165.800,347.937 165.800 C 347.903 165.800,347.610 166.093,347.287 166.450 M201.400 166.900 C 200.914 167.395,200.562 167.800,200.617 167.800 C 200.672 167.800,201.114 167.395,201.600 166.900 C 202.086 166.405,202.438 166.000,202.383 166.000 C 202.328 166.000,201.886 166.405,201.400 166.900 M333.087 166.650 L 332.500 167.300 333.150 166.713 C 333.756 166.165,333.892 166.000,333.737 166.000 C 333.703 166.000,333.410 166.293,333.087 166.650 M112.662 167.699 C 112.531 167.841,112.479 168.012,112.545 168.079 C 112.612 168.145,112.547 168.200,112.400 168.200 C 112.253 168.200,112.194 168.260,112.267 168.334 C 112.341 168.408,112.259 168.686,112.085 168.951 C 111.911 169.217,111.806 169.472,111.852 169.518 C 111.898 169.564,112.184 169.145,112.488 168.588 C 113.039 167.573,113.110 167.212,112.662 167.699 M337.442 168.406 C 337.154 168.868,337.139 169.000,337.377 169.000 C 337.538 169.000,337.851 168.184,337.734 168.068 C 337.707 168.041,337.576 168.193,337.442 168.406 M106.650 172.100 C 106.653 172.540,106.694 172.696,106.741 172.448 C 106.789 172.199,106.787 171.839,106.737 171.648 C 106.687 171.456,106.648 171.660,106.650 172.100 M304.646 172.400 C 304.646 172.785,304.688 172.942,304.738 172.750 C 304.788 172.558,304.788 172.243,304.738 172.050 C 304.688 171.858,304.646 172.015,304.646 172.400 M205.050 172.138 C 205.243 172.188,205.558 172.188,205.750 172.138 C 205.943 172.088,205.785 172.046,205.400 172.046 C 205.015 172.046,204.857 172.088,205.050 172.138 M118.446 174.000 C 118.446 174.385,118.488 174.543,118.538 174.350 C 118.588 174.158,118.588 173.843,118.538 173.650 C 118.488 173.458,118.446 173.615,118.446 174.000 M299.054 175.200 C 299.054 175.695,299.093 175.898,299.141 175.650 C 299.189 175.403,299.189 174.998,299.141 174.750 C 299.093 174.503,299.054 174.705,299.054 175.200 M278.046 176.600 C 278.046 176.985,278.088 177.143,278.138 176.950 C 278.188 176.758,278.188 176.442,278.138 176.250 C 278.088 176.058,278.046 176.215,278.046 176.600 M163.087 177.050 L 162.500 177.700 163.150 177.113 C 163.508 176.790,163.800 176.497,163.800 176.463 C 163.800 176.308,163.635 176.444,163.087 177.050 M284.057 177.300 C 284.059 177.850,284.098 178.051,284.144 177.747 C 284.189 177.443,284.188 176.993,284.141 176.747 C 284.093 176.501,284.056 176.750,284.057 177.300 M130.846 177.200 C 130.846 177.585,130.888 177.743,130.938 177.550 C 130.988 177.358,130.988 177.043,130.938 176.850 C 130.888 176.658,130.846 176.815,130.846 177.200 M298.854 177.400 C 298.854 177.895,298.893 178.097,298.941 177.850 C 298.989 177.603,298.989 177.197,298.941 176.950 C 298.893 176.703,298.854 176.905,298.854 177.400 M330.887 177.450 L 330.300 178.100 330.950 177.513 C 331.556 176.965,331.692 176.800,331.537 176.800 C 331.503 176.800,331.210 177.093,330.887 177.450 M330.800 178.300 C 330.427 178.685,330.208 179.000,330.313 179.000 C 330.418 179.000,330.618 178.817,330.758 178.592 C 330.905 178.357,331.116 178.244,331.257 178.324 C 331.390 178.401,331.433 178.390,331.352 178.300 C 331.270 178.210,331.304 178.016,331.426 177.868 C 331.867 177.337,331.464 177.615,330.800 178.300 M298.759 179.191 C 298.711 179.515,298.740 179.737,298.823 179.686 C 298.905 179.635,299.010 179.842,299.056 180.147 C 299.109 180.498,299.151 180.357,299.170 179.762 C 299.204 178.712,298.892 178.280,298.759 179.191 M335.793 180.350 L 334.700 181.500 335.850 180.407 C 336.918 179.391,337.092 179.200,336.943 179.200 C 336.912 179.200,336.394 179.718,335.793 180.350 M54.857 181.300 C 54.859 181.850,54.898 182.051,54.944 181.747 C 54.989 181.443,54.988 180.993,54.941 180.747 C 54.893 180.501,54.856 180.750,54.857 181.300 M131.800 180.523 C 131.800 180.628,132.317 181.206,132.950 181.807 L 134.100 182.900 133.000 181.705 C 132.395 181.047,131.878 180.470,131.850 180.421 C 131.822 180.373,131.800 180.419,131.800 180.523 M187.260 181.400 C 187.260 182.005,187.297 182.253,187.343 181.950 C 187.389 181.648,187.389 181.153,187.343 180.850 C 187.297 180.548,187.260 180.795,187.260 181.400 M216.728 180.900 C 216.664 181.065,216.700 181.200,216.806 181.200 C 216.913 181.200,217.000 181.105,217.000 180.988 C 217.000 180.872,217.104 180.841,217.231 180.919 C 217.374 181.008,217.408 180.974,217.319 180.831 C 217.122 180.512,216.865 180.542,216.728 180.900 M139.487 182.250 L 138.900 182.900 139.550 182.313 C 139.907 181.990,140.200 181.697,140.200 181.663 C 140.200 181.508,140.035 181.644,139.487 182.250 M89.254 184.200 C 89.254 184.695,89.293 184.898,89.341 184.650 C 89.389 184.403,89.389 183.998,89.341 183.750 C 89.293 183.503,89.254 183.705,89.254 184.200 M136.450 183.738 C 136.643 183.788,136.958 183.788,137.150 183.738 C 137.343 183.688,137.185 183.646,136.800 183.646 C 136.415 183.646,136.258 183.688,136.450 183.738 M89.246 186.600 C 89.246 186.985,89.288 187.143,89.338 186.950 C 89.388 186.758,89.388 186.442,89.338 186.250 C 89.288 186.058,89.246 186.215,89.246 186.600 M93.450 189.100 C 93.453 189.540,93.494 189.696,93.541 189.448 C 93.589 189.199,93.587 188.839,93.537 188.648 C 93.487 188.456,93.448 188.660,93.450 189.100 " stroke="none" fill="#fcd987" fill-rule="evenodd"></path><path id="path4" d="M166.552 88.341 C 166.801 88.389,167.161 88.387,167.352 88.337 C 167.544 88.287,167.340 88.248,166.900 88.250 C 166.460 88.253,166.304 88.294,166.552 88.341 M140.355 88.547 C 140.826 88.589,141.546 88.588,141.955 88.545 C 142.365 88.502,141.980 88.468,141.100 88.469 C 140.220 88.469,139.885 88.504,140.355 88.547 M258.755 88.547 C 259.226 88.589,259.946 88.588,260.355 88.545 C 260.765 88.502,260.380 88.468,259.500 88.469 C 258.620 88.469,258.285 88.504,258.755 88.547 M337.954 88.545 C 338.313 88.589,338.853 88.589,339.154 88.543 C 339.454 88.497,339.160 88.461,338.500 88.462 C 337.840 88.463,337.594 88.500,337.954 88.545 M59.496 95.900 L 59.500 103.300 64.550 103.305 L 69.600 103.311 64.603 103.252 L 59.605 103.193 59.549 95.847 L 59.492 88.500 59.496 95.900 M129.696 95.900 L 129.700 103.300 131.100 103.313 L 132.500 103.326 131.152 103.254 L 129.805 103.183 129.749 95.841 L 129.692 88.500 129.696 95.900 M194.296 95.900 L 194.300 103.300 195.700 103.313 L 197.100 103.326 195.752 103.254 L 194.405 103.183 194.349 95.841 L 194.292 88.500 194.296 95.900 M277.896 95.900 L 277.900 103.300 283.000 103.305 L 288.100 103.310 283.052 103.252 L 278.005 103.193 277.949 95.847 L 277.892 88.500 277.896 95.900 M307.437 89.743 L 307.400 90.987 305.150 91.051 L 302.900 91.114 305.156 91.157 C 307.722 91.206,307.664 91.244,307.548 89.576 L 307.474 88.500 307.437 89.743 M337.086 93.300 C 337.086 95.940,337.115 96.992,337.149 95.639 C 337.184 94.285,337.184 92.125,337.149 90.839 C 337.114 89.552,337.086 90.660,337.086 93.300 M48.800 90.063 C 48.800 90.097,49.093 90.390,49.450 90.713 L 50.100 91.300 49.513 90.650 C 48.965 90.044,48.800 89.908,48.800 90.063 M42.350 91.146 C 42.818 91.189,43.583 91.189,44.050 91.146 C 44.518 91.104,44.135 91.070,43.200 91.070 C 42.265 91.070,41.883 91.104,42.350 91.146 M62.441 92.750 L 62.400 94.600 65.490 94.600 L 68.580 94.600 68.658 95.750 L 68.736 96.900 68.718 95.700 L 68.700 94.500 65.658 94.445 L 62.615 94.390 62.549 92.645 L 62.482 90.900 62.441 92.750 M64.460 91.149 C 65.428 91.186,66.958 91.186,67.860 91.149 C 68.762 91.112,67.970 91.082,66.100 91.082 C 64.230 91.082,63.492 91.112,64.460 91.149 M242.157 91.148 C 242.738 91.188,243.638 91.188,244.157 91.147 C 244.676 91.106,244.200 91.073,243.100 91.073 C 242.000 91.074,241.576 91.107,242.157 91.148 M282.550 91.149 C 283.568 91.185,285.233 91.185,286.250 91.149 C 287.268 91.113,286.435 91.083,284.400 91.083 C 282.365 91.083,281.532 91.113,282.550 91.149 M296.358 91.148 C 297.050 91.187,298.130 91.187,298.758 91.148 C 299.386 91.108,298.820 91.076,297.500 91.076 C 296.180 91.077,295.666 91.109,296.358 91.148 M249.446 93.400 C 249.446 93.785,249.488 93.942,249.538 93.750 C 249.588 93.558,249.588 93.243,249.538 93.050 C 249.488 92.858,249.446 93.015,249.446 93.400 M206.200 93.866 C 206.145 93.921,206.145 96.066,206.200 98.633 L 206.300 103.300 207.700 103.313 L 209.100 103.326 207.754 103.254 L 206.407 103.183 206.354 98.474 C 206.324 95.885,206.255 93.811,206.200 93.866 M282.359 94.549 C 283.272 94.586,284.712 94.586,285.559 94.548 C 286.407 94.511,285.660 94.481,283.900 94.481 C 282.140 94.481,281.447 94.512,282.359 94.549 M51.266 95.900 C 51.267 96.670,51.303 96.960,51.346 96.546 C 51.389 96.131,51.389 95.501,51.344 95.146 C 51.300 94.790,51.265 95.130,51.266 95.900 M48.254 95.800 C 48.254 96.295,48.293 96.498,48.341 96.250 C 48.389 96.002,48.389 95.598,48.341 95.350 C 48.293 95.103,48.254 95.305,48.254 95.800 M172.886 95.143 C 173.815 95.208,173.989 95.284,174.070 95.660 C 174.151 96.031,174.160 96.022,174.133 95.600 C 174.102 95.130,174.030 95.099,172.949 95.084 L 171.798 95.067 172.886 95.143 M348.046 95.800 C 348.046 96.185,348.088 96.343,348.138 96.150 C 348.188 95.958,348.188 95.642,348.138 95.450 C 348.088 95.258,348.046 95.415,348.046 95.800 M121.245 99.340 L 121.200 103.180 120.050 103.252 L 118.900 103.324 120.056 103.362 C 121.502 103.409,121.422 103.668,121.350 99.194 L 121.290 95.500 121.245 99.340 M356.262 96.700 C 356.263 97.360,356.300 97.606,356.345 97.246 C 356.389 96.887,356.389 96.347,356.343 96.046 C 356.297 95.746,356.261 96.040,356.262 96.700 M361.683 99.300 C 361.684 101.390,361.713 102.218,361.749 101.140 C 361.785 100.061,361.785 98.351,361.749 97.340 C 361.713 96.328,361.683 97.210,361.683 99.300 M115.850 96.700 C 115.853 97.140,115.894 97.296,115.941 97.048 C 115.989 96.799,115.987 96.439,115.937 96.248 C 115.887 96.056,115.848 96.260,115.850 96.700 M165.880 97.050 C 165.801 97.188,165.812 97.231,165.905 97.146 C 165.998 97.062,166.395 97.287,166.787 97.646 L 167.500 98.300 166.811 97.550 C 166.025 96.695,166.070 96.719,165.880 97.050 M62.489 98.900 L 62.500 100.700 65.950 100.707 L 69.400 100.715 66.008 100.653 L 62.615 100.591 62.546 98.845 L 62.478 97.100 62.489 98.900 M223.700 97.400 L 221.700 97.523 223.750 97.561 C 225.009 97.585,225.800 97.523,225.800 97.400 C 225.800 97.290,225.778 97.217,225.750 97.239 C 225.722 97.260,224.800 97.333,223.700 97.400 M261.589 98.150 L 260.900 98.900 261.650 98.211 C 262.063 97.832,262.400 97.494,262.400 97.461 C 262.400 97.308,262.231 97.452,261.589 98.150 M42.354 100.745 C 42.713 100.789,43.253 100.789,43.554 100.743 C 43.854 100.697,43.560 100.661,42.900 100.662 C 42.240 100.663,41.994 100.700,42.354 100.745 M282.650 100.749 C 283.613 100.786,285.188 100.786,286.150 100.749 C 287.113 100.712,286.325 100.682,284.400 100.682 C 282.475 100.682,281.688 100.712,282.650 100.749 M337.374 103.050 C 337.585 103.319,337.910 103.391,338.774 103.363 L 339.900 103.326 338.806 103.251 C 338.204 103.210,337.574 103.069,337.406 102.938 C 337.138 102.730,337.134 102.744,337.374 103.050 M216.979 103.260 C 217.067 103.348,217.761 103.392,218.520 103.358 L 219.900 103.296 218.359 103.198 C 217.512 103.144,216.890 103.172,216.979 103.260 M40.259 103.349 C 41.117 103.386,42.467 103.386,43.259 103.348 C 44.052 103.310,43.350 103.280,41.700 103.280 C 40.050 103.280,39.402 103.311,40.259 103.349 M97.450 103.346 C 97.863 103.389,98.538 103.389,98.950 103.346 C 99.363 103.303,99.025 103.267,98.200 103.267 C 97.375 103.267,97.038 103.303,97.450 103.346 M140.754 103.345 C 141.113 103.389,141.653 103.389,141.954 103.343 C 142.254 103.297,141.960 103.261,141.300 103.262 C 140.640 103.263,140.394 103.300,140.754 103.345 M173.050 103.347 C 173.572 103.388,174.428 103.388,174.950 103.347 C 175.472 103.306,175.045 103.272,174.000 103.272 C 172.955 103.272,172.528 103.306,173.050 103.347 M228.450 103.346 C 228.863 103.389,229.538 103.389,229.950 103.346 C 230.363 103.303,230.025 103.267,229.200 103.267 C 228.375 103.267,228.038 103.303,228.450 103.346 M238.946 103.344 C 239.301 103.389,239.931 103.389,240.346 103.346 C 240.760 103.303,240.470 103.267,239.700 103.266 C 238.930 103.265,238.590 103.300,238.946 103.344 M247.755 103.347 C 248.226 103.389,248.946 103.388,249.355 103.345 C 249.765 103.302,249.380 103.268,248.500 103.269 C 247.620 103.269,247.285 103.304,247.755 103.347 M258.746 103.344 C 259.101 103.389,259.731 103.389,260.146 103.346 C 260.560 103.303,260.270 103.267,259.500 103.266 C 258.730 103.265,258.390 103.300,258.746 103.344 M268.150 103.346 C 268.618 103.389,269.382 103.389,269.850 103.346 C 270.318 103.304,269.935 103.270,269.000 103.270 C 268.065 103.270,267.683 103.304,268.150 103.346 M300.546 103.344 C 300.901 103.389,301.531 103.389,301.946 103.346 C 302.360 103.303,302.070 103.267,301.300 103.266 C 300.530 103.265,300.190 103.300,300.546 103.344 M315.946 103.344 C 316.301 103.389,316.931 103.389,317.346 103.346 C 317.760 103.303,317.470 103.267,316.700 103.266 C 315.930 103.265,315.590 103.300,315.946 103.344 M327.946 103.344 C 328.301 103.389,328.931 103.389,329.346 103.346 C 329.760 103.303,329.470 103.267,328.700 103.266 C 327.930 103.265,327.590 103.300,327.946 103.344 M359.954 103.345 C 360.313 103.389,360.853 103.389,361.154 103.343 C 361.454 103.297,361.160 103.261,360.500 103.262 C 359.840 103.263,359.594 103.300,359.954 103.345 M166.552 103.541 C 166.801 103.589,167.161 103.587,167.352 103.537 C 167.544 103.487,167.340 103.448,166.900 103.450 C 166.460 103.453,166.304 103.494,166.552 103.541 M140.389 120.550 L 139.700 121.300 140.450 120.611 C 141.148 119.969,141.292 119.800,141.139 119.800 C 141.106 119.800,140.768 120.138,140.389 120.550 M336.800 126.300 C 336.314 126.795,335.962 127.200,336.017 127.200 C 336.072 127.200,336.514 126.795,337.000 126.300 C 337.486 125.805,337.838 125.400,337.783 125.400 C 337.728 125.400,337.286 125.805,336.800 126.300 M68.450 134.738 C 68.642 134.788,68.958 134.788,69.150 134.738 C 69.343 134.688,69.185 134.646,68.800 134.646 C 68.415 134.646,68.258 134.688,68.450 134.738 M69.650 139.500 C 69.653 139.940,69.694 140.096,69.741 139.848 C 69.789 139.599,69.787 139.239,69.737 139.048 C 69.687 138.856,69.648 139.060,69.650 139.500 M329.032 140.109 C 328.697 140.844,328.761 141.001,329.124 140.332 C 329.293 140.020,329.394 139.727,329.348 139.681 C 329.302 139.636,329.160 139.828,329.032 140.109 M87.050 140.138 C 87.243 140.188,87.558 140.188,87.750 140.138 C 87.942 140.088,87.785 140.046,87.400 140.046 C 87.015 140.046,86.858 140.088,87.050 140.138 M270.541 143.410 C 270.604 143.900,270.688 144.338,270.728 144.383 C 270.891 144.571,270.780 143.078,270.611 142.810 C 270.492 142.623,270.468 142.835,270.541 143.410 M136.912 144.506 C 136.698 144.668,136.608 144.803,136.712 144.806 C 136.815 144.810,136.725 144.945,136.512 145.106 C 136.298 145.268,136.225 145.400,136.348 145.400 C 136.472 145.400,136.765 145.130,137.000 144.800 C 137.480 144.126,137.468 144.086,136.912 144.506 M136.100 145.753 C 135.869 145.923,135.353 146.800,135.485 146.800 C 135.533 146.800,135.765 146.530,136.000 146.200 C 136.435 145.589,136.457 145.491,136.100 145.753 M82.000 147.100 C 81.514 147.595,81.162 148.000,81.217 148.000 C 81.272 148.000,81.714 147.595,82.200 147.100 C 82.686 146.605,83.038 146.200,82.983 146.200 C 82.928 146.200,82.486 146.605,82.000 147.100 M116.050 146.738 C 116.243 146.788,116.558 146.788,116.750 146.738 C 116.942 146.688,116.785 146.646,116.400 146.646 C 116.015 146.646,115.858 146.688,116.050 146.738 M93.692 152.250 L 92.700 153.300 93.750 152.308 C 94.328 151.762,94.800 151.289,94.800 151.258 C 94.800 151.108,94.615 151.274,93.692 152.250 M130.110 153.016 C 130.161 153.099,130.089 153.206,129.951 153.256 C 129.813 153.305,129.753 153.403,129.818 153.474 C 129.883 153.545,130.086 153.437,130.269 153.235 C 130.544 152.931,130.551 152.867,130.310 152.867 C 130.149 152.867,130.059 152.934,130.110 153.016 M287.139 155.350 C 286.926 155.730,286.811 156.600,286.974 156.600 C 287.074 156.600,287.193 156.285,287.238 155.900 C 287.320 155.199,287.297 155.070,287.139 155.350 M328.230 156.190 C 328.316 156.448,328.590 156.494,328.615 156.255 C 328.623 156.175,328.522 156.074,328.390 156.030 C 328.258 155.986,328.186 156.058,328.230 156.190 M173.789 158.150 L 173.100 158.900 173.850 158.211 C 174.548 157.569,174.692 157.400,174.539 157.400 C 174.506 157.400,174.168 157.738,173.789 158.150 M136.692 159.050 L 135.700 160.100 136.750 159.108 C 137.726 158.185,137.892 158.000,137.742 158.000 C 137.711 158.000,137.238 158.472,136.692 159.050 M86.687 165.850 L 86.100 166.500 86.750 165.913 C 87.356 165.365,87.492 165.200,87.337 165.200 C 87.303 165.200,87.010 165.493,86.687 165.850 M181.087 166.250 L 180.500 166.900 181.150 166.313 C 181.508 165.990,181.800 165.697,181.800 165.663 C 181.800 165.508,181.635 165.644,181.087 166.250 M279.260 166.800 C 279.260 167.405,279.297 167.653,279.343 167.350 C 279.389 167.048,279.389 166.553,279.343 166.250 C 279.297 165.947,279.260 166.195,279.260 166.800 M337.057 166.700 C 337.059 167.250,337.098 167.451,337.144 167.147 C 337.189 166.843,337.188 166.393,337.141 166.147 C 337.093 165.901,337.056 166.150,337.057 166.700 M329.891 167.450 L 329.100 168.300 329.950 167.509 C 330.418 167.075,330.800 166.692,330.800 166.659 C 330.800 166.508,330.626 166.660,329.891 167.450 M192.229 169.610 C 192.239 170.936,192.293 171.974,192.350 171.916 C 192.512 171.755,192.518 167.200,192.356 167.200 C 192.277 167.200,192.220 168.285,192.229 169.610 M341.666 169.100 C 341.667 169.870,341.703 170.160,341.746 169.746 C 341.789 169.331,341.789 168.701,341.744 168.346 C 341.700 167.990,341.665 168.330,341.666 169.100 M336.536 170.709 C 336.066 171.695,336.132 171.862,336.623 170.931 C 336.846 170.508,336.994 170.127,336.950 170.084 C 336.907 170.040,336.721 170.322,336.536 170.709 M325.988 172.223 C 325.811 172.552,325.817 172.628,326.013 172.562 C 326.152 172.516,326.287 172.326,326.315 172.139 C 326.382 171.681,326.261 171.712,325.988 172.223 M324.786 173.827 C 324.600 174.174,324.520 174.202,324.360 173.977 C 324.209 173.765,324.190 173.786,324.281 174.066 C 324.347 174.268,324.400 174.628,324.401 174.866 C 324.402 175.278,325.376 173.987,325.394 173.550 C 325.407 173.235,325.004 173.419,324.786 173.827 M333.189 174.750 L 332.500 175.500 333.250 174.811 C 333.948 174.169,334.092 174.000,333.939 174.000 C 333.906 174.000,333.568 174.338,333.189 174.750 M139.994 175.950 L 138.700 177.300 140.050 176.006 C 140.792 175.294,141.400 174.686,141.400 174.656 C 141.400 174.509,141.196 174.696,139.994 175.950 M317.650 175.700 C 317.653 176.140,317.694 176.296,317.741 176.048 C 317.789 175.799,317.787 175.439,317.737 175.248 C 317.687 175.056,317.648 175.260,317.650 175.700 M179.492 177.050 L 178.500 178.100 179.550 177.108 C 180.526 176.185,180.692 176.000,180.542 176.000 C 180.511 176.000,180.038 176.472,179.492 177.050 M167.000 177.288 C 167.000 177.557,167.074 177.822,167.164 177.878 C 167.254 177.933,167.289 177.714,167.241 177.389 C 167.136 176.675,167.000 176.617,167.000 177.288 M298.257 177.700 C 298.259 178.250,298.298 178.451,298.344 178.147 C 298.389 177.843,298.388 177.393,298.341 177.147 C 298.293 176.901,298.256 177.150,298.257 177.700 M277.862 179.700 C 277.863 180.360,277.900 180.606,277.945 180.246 C 277.989 179.887,277.989 179.347,277.943 179.046 C 277.897 178.746,277.861 179.040,277.862 179.700 M303.650 179.300 C 303.653 179.740,303.694 179.896,303.741 179.648 C 303.789 179.399,303.787 179.039,303.737 178.848 C 303.687 178.656,303.648 178.860,303.650 179.300 M300.100 182.200 C 300.530 182.640,300.926 183.000,300.981 183.000 C 301.036 183.000,300.730 182.640,300.300 182.200 C 299.870 181.760,299.474 181.400,299.419 181.400 C 299.364 181.400,299.670 181.760,300.100 182.200 " stroke="none" fill="#fcecd0" fill-rule="evenodd"></path></g></svg>